<svg xmlns="http://www.w3.org/2000/svg" viewBox="0 0 68.9 64.1"><path fill="#134679" d="M42.6 38.7C30.6 50.4 15 56.2-.6 56l-.1 8.1c17.6.2 35.3-6.4 48.9-19.7l-5.6-5.7zm-17-17.3l-5.7-5.8C14.3 21.1 7 23.8-.3 23.7l-.1 8.1c9.4.1 18.8-3.4 26-10.4"/><path fill="#EF465B" d="M-60.8-5.3l-8.1-.1c-.2 17.6 6.4 35.3 19.7 48.9l5.8-5.7C-55.2 25.9-60.9 10.2-60.8-5.3m97.7 38.2C26.5 43.1 13 48.1-.5 48l-.1 8c15.6.2 31.2-5.6 43.2-17.4l-5.7-5.7zM-28.4-5l-8.1-.1c-.1 9.4 3.4 18.7 10.4 25.9l5.8-5.7C-25.8 9.6-28.5 2.3-28.4-5M14.3 9.8c-4 3.9-9.2 5.9-14.5 5.8l-.1 8.1c7.3.1 14.6-2.6 20.2-8.1l-5.6-5.8z"/><path fill="#B1D23E" d="M-44.6-5.2c.1-11.4 4.6-22.8 13.4-31.4l-5.7-5.8C-26.5-52.6-13-57.6.5-57.4l.1-8.1c-15.6-.2-31.2 5.6-43.2 17.4-12 11.7-18.1 27.2-18.2 42.8l8.1.1c-.1 13.5 4.9 27 15 37.4l5.8-5.7c-8.6-8.8-12.8-20.3-12.7-31.7m32.3.3c0-3.1 1.3-6.3 3.7-8.6l-5.7-5.8c4-3.9 9.2-5.9 14.5-5.8l.1-8.1c-7.3-.1-14.6 2.6-20.2 8.1s-8.4 12.8-8.5 20l8.1.1c-.1 5.2 1.9 10.4 5.8 14.5l5.8-5.7c-2.4-2.4-3.6-5.5-3.6-8.7"/><path fill="#2EB1E0" d="M68.9-4.1C69-21.7 62.5-39.4 49.2-53l-5.8 5.7c11.7 12 17.5 27.6 17.3 43.2-.2 15.6-6.2 31.1-18.2 42.8l5.7 5.8C61.8 31.2 68.7 13.6 68.9-4.1m-32.4-.3c.1-9.4-3.4-18.7-10.4-25.9l-5.8 5.7c5.5 5.6 8.2 12.9 8.1 20.2-.1 7.3-2.9 14.5-8.5 20l5.7 5.8c-7.2 7-16.6 10.5-26 10.4l-.1 8.1c11.5.1 23-4.2 31.7-12.8 8.8-8.6 13.2-20 13.4-31.4l-8.1-.1zM4.2-4.7c0 1.1-.4 2.1-1.3 3C2.1-.9 1-.5 0-.5l-.1 8.1C3 7.6 6.2 6.4 8.6 4c2.4-2.4 3.6-5.5 3.7-8.6l-8.1-.1z"/></svg>