<svg xmlns="http://www.w3.org/2000/svg" viewBox="0 0 49.8 65.8"><path fill="#7A3D57" d="M22.2 36.3l5.5 5.9c7.4-6.9 16.8-10.1 26.2-9.8l.3-8.1c-11.5-.4-23 3.6-32 12m22.1 23.6l5.5 5.9c.8-.8 1.9-1.2 3-1.1l.3-8.1c-3.2-.1-6.3 1-8.8 3.3"/><path fill="#2EB1E0" d="M54.9 0C37.3-.5 19.4 5.6 5.6 18.6l5.5 5.9C23.3 13 39.1 7.6 54.7 8.1c15.5.5 30.9 6.9 42.4 19.2l5.9-5.5C90 7.9 72.6.6 54.9 0m-1 32.4c-9.4-.3-18.8 3-26.2 9.8l5.5 5.9c5.7-5.4 13.1-7.9 20.4-7.7 7.3.2 14.5 3.2 19.8 9l5.9-5.5c6.9 7.3 10.1 16.8 9.8 26.2l8.1.3c.4-11.4-3.6-23-12-32S65.5 24.7 54.1 24.3l-.2 8.1zm-1.1 32.3c1.1 0 2.1.5 2.9 1.3.8.8 1.2 1.9 1.1 3l8.1.3c.1-3.1-1-6.3-3.3-8.8-2.3-2.5-5.4-3.8-8.6-3.9l-.2 8.1z"/><path fill="#FFCB0A" d="M16.6 30.4C6 40.3.5 53.7 0 67.1l8.1.3c-.4 11.4 3.6 23 12 32l5.9-5.5c-6.9-7.3-10.1-16.8-9.8-26.2.3-9.4 4.2-18.6 11.5-25.5l-5.5-5.9c9-8.4 20.5-12.4 32-12l.3-8.1c-13.6-.4-27.2 4.2-37.9 14.2M38.8 54c-4.1 3.8-6.3 9-6.4 14.2l8.1.3c-.1 3.1 1 6.3 3.3 8.8l5.9-5.5c-.8-.8-1.2-1.9-1.1-3 0-1.1.5-2.1 1.3-2.9L44.4 60c2.5-2.3 5.7-3.4 8.8-3.3l.3-8.1c-5.4-.3-10.6 1.6-14.7 5.4"/></svg>