<svg xmlns="http://www.w3.org/2000/svg" viewBox="0 0 52 59.8"><path fill="#7A3D57" d="M28.8 37.5l5.8 5.7C41.7 36 51 32.4 60.4 32.3l-.1-8.1c-11.4.1-22.8 4.5-31.5 13.3m23.1 22.7l5.8 5.7c.8-.8 1.9-1.2 3-1.2v-8.1c-3.3 0-6.5 1.2-8.8 3.6"/><path fill="#2EB1E0" d="M60.2 0C42.5.1 24.9 6.9 11.6 20.4l5.8 5.7c11.8-11.9 27.3-17.9 42.9-18 15.6-.1 31.2 5.7 43.1 17.5l5.7-5.8C95.5 6.5 77.8-.1 60.2 0m.2 32.3c-9.4.1-18.7 3.7-25.8 10.9l5.8 5.7c5.5-5.6 12.8-8.4 20.1-8.4 7.3 0 14.6 2.7 20.2 8.2l5.7-5.8c7.2 7.1 10.8 16.4 10.8 25.8h8.1c-.1-11.4-4.5-22.8-13.2-31.5-8.8-8.6-20.2-12.9-31.6-12.9l-.1 8zm.2 32.4c1.1 0 2.1.4 3 1.2.8.8 1.2 1.9 1.2 3l8.1-.1c0-3.1-1.2-6.3-3.6-8.7-2.4-2.4-5.6-3.6-8.7-3.5v8.1z"/><path fill="#FFCB0A" d="M23.1 31.8C12.9 42.2 7.8 55.7 7.9 69.2H16c.1 11.4 4.5 22.8 13.2 31.5l5.7-5.8c-7.2-7.1-10.8-16.4-10.8-25.8-.1-9.4 3.4-18.7 10.5-25.9l-5.8-5.7c8.6-8.8 20-13.2 31.5-13.2l-.1-8.1c-13.4.1-26.9 5.3-37.1 15.6m23 22.7c-3.9 4-5.9 9.2-5.9 14.4l8.1-.1c0 3.1 1.2 6.3 3.6 8.7l5.7-5.8c-.8-.8-1.2-1.9-1.2-3s.4-2.1 1.2-3L51.8 60c2.4-2.4 5.5-3.6 8.7-3.6v-8.1c-5.2.2-10.4 2.2-14.4 6.2"/></svg>