<svg xmlns="http://www.w3.org/2000/svg" viewBox="0 0 68.8 121.5"><path fill="#134679" d="M43 95.6c-11.8 11.9-27.4 17.8-43 17.9v8.1c17.6 0 35.3-6.8 48.7-20.2L43 95.6zM25.8 78.5l-5.7-5.7C14.6 78.3 7.3 81.1 0 81.1v8.1c9.4 0 18.7-3.6 25.8-10.7"/><path fill="#EF465B" d="M-60.8 52.8h-8.1c0 17.6 6.8 35.3 20.2 48.7l5.7-5.7c-11.8-11.9-17.8-27.4-17.8-43m98.1 37.1C27 100.2 13.5 105.4 0 105.4v8.1c15.6 0 31.1-6 43-17.9l-5.7-5.7zm-65.8-37.2h-8.1c0 9.4 3.6 18.7 10.7 25.8l5.7-5.7c-5.5-5.5-8.3-12.8-8.3-20.1m42.9 14.4c-4 4-9.2 6-14.4 6v8.1c7.3 0 14.6-2.8 20.1-8.4l-5.7-5.7z"/><path fill="#7A3D57" d="M31.5 21.1l-5.7 5.7c7.1 7.1 10.7 16.5 10.7 25.8h8.1c-.1-11.4-4.4-22.8-13.1-31.5M8.6 44l-5.7 5.7c.8.8 1.2 1.9 1.2 3h8.1c0-3.2-1.2-6.3-3.6-8.7"/><path fill="#2EB1E0" d="M68.8 52.6C68.8 35 62 17.3 48.6 3.9l-5.7 5.7c11.9 11.8 17.8 27.4 17.9 43 0 15.6-5.9 31.2-17.7 43l5.7 5.7c13.4-13.4 20-31.1 20-48.7m-32.3 0c0-9.4-3.6-18.7-10.7-25.8L20 32.5c5.6 5.5 8.3 12.8 8.4 20.1 0 7.3-2.8 14.6-8.3 20.1l5.7 5.7C18.7 85.6 9.4 89.2 0 89.2v8.1c11.4 0 22.8-4.4 31.5-13.1s13-20.2 13-31.6h-8zm-32.4.1c0 1.1-.4 2.1-1.2 3-.8.8-1.9 1.2-3 1.2L0 65c3.1 0 6.3-1.2 8.7-3.6 2.4-2.4 3.6-5.5 3.6-8.7H4.1z"/><path fill="#FFCB0A" d="M37.2 15.3C26.9 5.1 13.4 0-.1 0v8.1c-11.4 0-22.8 4.4-31.5 13.1l5.7 5.7c7.1-7.1 16.5-10.7 25.8-10.7 9.4 0 18.7 3.5 25.9 10.6l5.7-5.7c8.7 8.7 13.1 20.1 13.1 31.5h8.1c-.1-13.5-5.2-27-15.5-37.3m-22.9 23c-4-4-9.2-5.9-14.4-5.9v8.1c-3.1 0-6.3 1.2-8.7 3.6l5.7 5.7c.8-.8 1.9-1.2 3-1.2s2.1.4 3 1.2L8.6 44c2.4 2.4 3.6 5.5 3.6 8.7h8.1c0-5.3-2-10.5-6-14.4"/></svg>