<svg xmlns="http://www.w3.org/2000/svg" width="1000" height="350" viewBox="0 0 1000 350"><path d="M761.329 148.67V65.078h-20.791v44.348h-40.94V65.078h-37.979l2.755 19.092H678.8v92.5h20.798v-46.878h40.94v22.696c0 17.817 6.576 24.183 17.612 24.183h12.727l4.456-18.877h-7.854c-5.295-.001-6.15-3.826-6.15-9.124m-112.017 4.457l-9.329-88.045h-18.887l-26.942 60.893-29.275-60.893h-18.673L534.75 176.678h21.217l7.217-73.834 22.479 47.097h16.131l21.218-47.097 5.726 52.192c1.696 15.271 5.092 21.644 17.822 21.644h11.027l4.031-17.187h-7.003c-2.967-.001-4.665-1.069-5.303-6.366m164.209-10.401v-13.151h35.857l4.241-19.518h-40.1V85.662h50.28l-3.18-20.58h-79.771l-3.604 20.58h15.693v61.31c0 27.16 20.155 29.708 24.397 29.708h43.923l4.666-20.374h-40.951c-6.784-.001-11.451-1.061-11.451-13.58m169.732 15.067c-5.307 0-6.162-3.818-6.162-9.123V65.082H959.28l-49.23 74.465V65.082h-37.975l2.969 19.092h14.43v92.503h18.245l49.012-74.472v50.282c0 17.817 6.574 24.189 17.604 24.189h12.311l4.456-18.884-7.849.001zm-495.767-32.547l-19.354-44.04c-5.306-11.877-10.396-16.124-19.521-16.124h-9.334l-7.431 18.881h3.608c9.55 0 12.303 5.088 15.915 12.517l26.189 54.415c-2.569 4.645-5.5 6.899-10.067 6.899-4.031 0-8.91-1.698-12.943-5.095l-9.331 16.548c6.152 5.306 14.002 8.483 22.484 8.483 12.095 0 20.8-4.237 28.217-22.694l35.86-89.953h-22.277l-22.015 60.163zm446.116-64.831c13.79 0 29.069-6.793 30.34-28.43h-21.427c-.211 9.12-4.877 11.025-8.913 11.025-4.03 0-8.698-1.906-8.913-11.025h-21.422c1.268 21.637 16.551 28.43 30.335 28.43"/><path fill="#144579" d="M316.067 233.333c-16.658 40.211-48.125 69.897-85.477 85.379l8.034 19.39c42.318-17.533 77.973-51.17 96.848-96.734l-19.405-8.035zm-58.204-24.112l-19.399-8.039c-7.802 18.821-22.524 32.713-40.001 39.952l8.032 19.394c22.448-9.298 41.356-27.141 51.368-51.307"/><path fill="#EF465B" d="M24.396 233.307L5 241.331c17.532 42.327 51.174 77.979 96.735 96.847h.006l8.039-19.402h-.011c-40.207-16.654-69.898-48.122-85.373-85.469m272.271-8.016c-14.446 34.866-41.728 60.609-74.111 74.025l8.037 19.39c37.353-15.472 68.816-45.162 85.473-85.373l-19.399-8.042zm-194.698-24.125l-19.391 8.037c9.297 22.443 27.141 41.355 51.311 51.367l8.032-19.403c-18.816-7.792-32.713-22.517-39.952-40.001m117.09-8.02c-5.583 13.471-16.121 23.414-28.626 28.601l8.03 19.387c17.479-7.237 32.199-21.131 39.996-39.952l-19.4-8.036z"/><path fill="#862833" d="M43.787 225.271l-19.393 8.03c15.477 37.353 45.164 68.819 85.377 85.474h.005l8.033-19.397c-34.865-14.446-60.606-41.72-74.022-74.107m77.578-32.128l-19.393 8.02c7.24 17.49 21.135 32.215 39.953 40.007l8.034-19.399c-13.471-5.583-23.414-16.123-28.594-28.628"/><path fill="#B2D33E" d="M63.18 217.234c-11.354-27.414-12.278-59.157-.046-88.674l-19.402-8.04c14.44-34.863 41.724-60.607 74.11-74.021l-8.038-19.395c-37.353 15.472-68.816 45.167-85.475 85.383-16.657 40.217-15.403 83.458.066 120.818l19.39-8.035c13.418 32.39 39.159 59.66 74.027 74.106l8.032-19.403c-29.516-12.225-51.305-35.328-62.664-62.739m77.571-32.129c-3.118-7.541-3.373-16.279-.01-24.399l-19.396-8.037c5.573-13.471 16.108-23.417 28.625-28.596l-8.032-19.396c-17.48 7.24-32.208 21.129-39.999 39.951v.006c-7.798 18.811-7.204 39.061.036 56.529l19.391-8.021c5.18 12.51 15.125 23.045 28.594 28.627l8.04-19.401c-8.122-3.372-14.124-9.723-17.249-17.263"/><path fill="#466533" d="M117.841 46.499c-32.387 13.414-59.67 39.158-74.11 74.021l19.402 8.035c12.227-29.513 35.32-51.308 62.737-62.663l-8.029-19.393zm32.129 77.572c-12.517 5.184-23.052 15.127-28.625 28.598l19.396 8.034c3.359-8.113 9.715-14.118 17.263-17.24l-8.034-19.392z"/><path fill="#793C56" d="M214.546 65.844l-8.039 19.399c24.167 10.011 42.014 28.925 51.313 51.372l19.392-8.035c-11.36-27.414-33.147-50.515-62.666-62.736m-32.149 77.607l-8.035 19.402a10.849 10.849 0 0 1 5.891 5.887l19.388-8.032c-3.123-7.538-9.128-13.889-17.244-17.257"/><path fill="#2EB2E2" d="M335.391 104.483c-17.529-42.325-51.166-77.975-96.729-96.855l-8.042 19.405c40.216 16.66 69.911 48.127 85.377 85.477 15.477 37.36 16.732 80.6.07 120.821l19.407 8.034v-.008c18.867-45.56 17.449-94.553-.083-136.874m-77.574 32.132c-9.294-22.447-27.146-41.36-51.305-51.372l-8.04 19.4c18.822 7.801 32.716 22.522 39.955 40.006 7.239 17.477 7.823 37.715.031 56.531l19.404 8.041c-10.012 24.165-28.92 42.008-51.368 51.305l8.031 19.393c27.415-11.352 50.516-33.146 62.732-62.664 12.23-29.518 11.306-61.253-.047-88.673l-19.393 8.033zm-77.565 32.123a10.862 10.862 0 0 1 0 8.333 10.86 10.86 0 0 1-5.893 5.891l8.037 19.389c7.538-3.123 13.896-9.117 17.258-17.236 3.364-8.129 3.11-16.854-.012-24.402l-19.39 8.025z"/><path fill="#FFCB05" d="M222.582 46.439c-34.869-14.44-72.359-13.358-104.743.06l8.032 19.393c-27.419 11.354-50.513 33.15-62.736 62.663l19.4 8.04c10.011-24.17 28.922-42.009 51.37-51.306 22.443-9.307 48.433-10.058 72.604-.046l8.037-19.399c29.519 12.225 51.306 35.322 62.665 62.739l19.396-8.038c-13.416-32.382-39.149-59.659-74.025-74.106m-32.145 77.615c-13.475-5.582-27.957-5.166-40.467.017l8.034 19.392c-7.547 3.123-13.9 9.13-17.261 17.243l19.402 8.037a10.832 10.832 0 0 1 5.889-5.887 10.836 10.836 0 0 1 8.328 0l8.038-19.403c8.116 3.366 14.115 9.717 17.243 17.258l19.391-8.032c-5.185-12.513-15.128-23.049-28.597-28.625"/><path d="M448.641 217.135c8.342 0 14.648 6.348 14.648 14.45 0 8.343-6.307 14.849-14.648 14.849-8.343 0-14.65-6.506-14.65-14.849-.001-8.105 6.307-14.45 14.65-14.45zm0 24.429c5.109 0 9.221-4.313 9.221-9.979 0-5.429-4.11-9.58-9.221-9.58s-9.221 4.151-9.221 9.58c0 5.668 4.111 9.979 9.221 9.979zm19.598-19.519h-2.595v-4.432h17.164c1.876 0 2.675.839 2.675 2.715v4.313h-4.71v-1.718c0-.56-.319-.878-.878-.878h-6.426v6.945h4.471c4.67 0 9.979 1.876 9.979 8.303 0 6.107-4.671 8.662-10.06 8.662h-6.906c-1.876 0-2.714-.799-2.714-2.715v-21.195zm6.107 19.6h3.952c2.675 0 4.23-1.717 4.23-4.19 0-2.476-1.557-4.151-4.23-4.151h-4.83v7.465c0 .555.319.876.878.876zm18.241-19.6h-2.596v-4.432h12.974c5.309 0 9.021 3.713 9.021 9.222s-3.713 9.341-9.021 9.341h-5.149v9.779h-5.229v-23.91zm9.42 9.66c2.954 0 4.631-1.916 4.631-4.87 0-2.914-1.677-4.79-4.551-4.79h-4.271v9.66h4.191zm9.3 9.818h.68c.678 0 .957-.16 1.197-.877l8.422-23.033h5.469l8.383 23.033c.279.717.56.877 1.237.877h.64v4.432h-3.113c-1.996 0-2.714-.52-3.313-2.314l-1.796-4.949h-9.54l-1.797 4.949c-.599 1.797-1.315 2.314-3.312 2.314h-3.154v-4.432h-.003zm16.645-7.144l-2.436-7.105c-.519-1.557-1.157-4.229-1.157-4.229h-.08s-.599 2.674-1.118 4.229l-2.395 7.105h7.186zm13.61 4.592c.998 1.037 3.393 2.913 6.188 2.913 2.635 0 5.028-1.517 5.028-4.231 0-2.514-2.035-3.991-4.511-3.991h-3.233v-4.19h2.875c2.314 0 4.07-1.597 4.07-3.992 0-2.274-1.477-3.752-4.07-3.752-2.195 0-3.832 1.117-3.832 2.436v1.038h-4.711v-2.476c0-3.951 4.99-5.589 8.981-5.589 5.748 0 8.861 3.074 8.861 7.505 0 3.354-1.916 5.27-3.911 6.348v.08c3.112.918 4.789 3.632 4.789 6.824 0 4.95-3.991 8.543-10.179 8.543-4.751 0-7.705-2.195-9.381-3.912l3.036-3.554zm33.769-21.836c8.344 0 14.649 6.348 14.649 14.45 0 8.343-6.307 14.849-14.649 14.849-8.342 0-14.648-6.506-14.648-14.849 0-8.105 6.306-14.45 14.648-14.45zm0 24.429c5.109 0 9.222-4.313 9.222-9.979 0-5.429-4.111-9.58-9.222-9.58-5.109 0-9.221 4.151-9.221 9.58.001 5.668 4.113 9.979 9.221 9.979zm19.599-19.519h-2.594v-4.432h12.612c5.149 0 8.781 2.635 8.781 7.306 0 3.153-1.716 5.188-3.433 6.067v.08c3.072.918 4.551 3.791 4.551 6.666 0 5.668-4.511 8.223-9.739 8.223h-7.465c-1.877 0-2.715-.799-2.715-2.715l.002-21.195zm10.138 7.144c2.195 0 3.435-1.597 3.435-3.633 0-2.035-1.197-3.513-3.514-3.513h-4.91v7.146h4.989zm-4.112 12.334h4.592c2.555 0 3.99-1.717 3.99-4.11 0-2.354-1.477-4.071-3.99-4.071h-5.47v7.305c0 .558.32.876.878.876zm15.208 0h.68c.679 0 .958-.16 1.197-.877l8.423-23.033h5.469l8.382 23.033c.279.717.561.877 1.238.877h.639v4.432h-3.113c-1.996 0-2.715-.52-3.313-2.314l-1.796-4.949h-9.541l-1.796 4.949c-.6 1.797-1.317 2.314-3.313 2.314h-3.153v-4.432h-.003zm16.647-7.144l-2.436-7.105c-.52-1.557-1.157-4.229-1.157-4.229h-.079s-.6 2.674-1.118 4.229l-2.396 7.105h7.186zm13.41-11.456c0-.56-.318-.878-.877-.878h-1.717v-4.432h5.108c1.916 0 2.714.839 2.714 2.715v9.301h12.494v-9.301c0-1.876.839-2.715 2.714-2.715h5.109v4.432h-1.716c-.56 0-.878.318-.878.878v23.032h-5.229V234.06h-12.494v11.896h-5.229v-23.033zm30.536 0c0-.56-.319-.878-.878-.878h-1.718v-4.432h5.109c1.916 0 2.715.839 2.715 2.715v13.213c0 1.677-.278 4.311-.278 4.311h.08s1.557-2.713 2.555-4.351l10.418-15.887h5.188v23.032c0 .559.318.877.878.877h1.717v4.432h-5.109c-1.876 0-2.714-.799-2.714-2.715v-13.252c0-1.637.279-4.391.279-4.391h-.08s-1.397 2.754-2.476 4.391l-10.458 15.967h-5.229v-23.032h.001zm30.734-.878h-2.595v-4.432h17.124c1.916 0 2.715.839 2.715 2.715v4.313h-4.711v-1.718c0-.56-.317-.878-.878-.878h-6.427v7.426h9.221v4.43h-9.221v6.746c0 .56.32.879.879.879h6.586c.56 0 .878-.319.878-.879v-1.717h4.71v4.312c0 1.916-.798 2.715-2.714 2.715h-12.854c-1.876 0-2.715-.799-2.715-2.715l.002-21.197zm-264.359 47.898h-4.352c-.599 0-.878.318-.878.877v1.718h-4.59v-4.472c0-1.875.639-2.555 2.515-2.555h19.8c1.876 0 2.555.68 2.555 2.555v4.472h-4.63v-1.718c0-.559-.279-.877-.878-.877h-4.313v23.91h-5.229v-23.91zm19.278 0h-2.594v-4.432h12.614c5.148 0 8.782 2.635 8.782 7.305 0 3.154-1.717 5.189-3.434 6.067v.08c3.074.918 4.551 3.792 4.551 6.666 0 5.668-4.511 8.224-9.739 8.224h-7.464c-1.876 0-2.716-.8-2.716-2.716v-21.194zm10.14 7.145c2.194 0 3.433-1.596 3.433-3.632s-1.198-3.513-3.513-3.513h-4.91v7.145h4.99zm-4.111 12.335h4.59c2.556 0 3.992-1.717 3.992-4.11 0-2.355-1.477-4.071-3.992-4.071h-5.469v7.305c.001.557.32.876.879.876zm31.134-24.39c8.342 0 14.65 6.347 14.65 14.449 0 8.344-6.309 14.85-14.65 14.85-8.343 0-14.649-6.506-14.649-14.85-.001-8.102 6.306-14.449 14.649-14.449zm0 24.43c5.109 0 9.221-4.313 9.221-9.979 0-5.43-4.111-9.58-9.221-9.58-5.108 0-9.221 4.15-9.221 9.58 0 5.666 4.111 9.979 9.221 9.979zm19.598-19.52h-2.596v-4.432h17.124c1.916 0 2.715.838 2.715 2.715v4.312h-4.71v-1.718c0-.559-.319-.877-.879-.877H524.4v7.425h9.221v4.431H524.4v6.746c0 .559.318.878.877.878h6.587c.56 0 .878-.319.878-.878v-1.717h4.711v4.311c0 1.916-.799 2.715-2.715 2.715h-12.854c-1.876 0-2.714-.799-2.714-2.715l.001-21.196zm23.27 0h-2.595v-4.432h16.845c1.916 0 2.715.838 2.715 2.715v4.312h-4.75v-1.718c0-.559-.319-.877-.879-.877h-6.106v23.91h-5.229v-23.91zm32.852-4.91c8.342 0 14.647 6.347 14.647 14.449 0 8.344-6.307 14.85-14.647 14.85-8.345 0-14.65-6.506-14.65-14.85 0-8.102 6.305-14.449 14.65-14.449zm0 24.43c5.108 0 9.221-4.313 9.221-9.979 0-5.43-4.111-9.58-9.221-9.58s-9.223 4.15-9.223 9.58c.001 5.666 4.114 9.979 9.223 9.979zm30.175-19.52h-2.595v-4.432h17.163c1.878 0 2.676.838 2.676 2.715v4.312h-4.71v-1.718c0-.559-.319-.877-.879-.877h-6.427v6.945h4.472c4.67 0 9.979 1.875 9.979 8.303 0 6.106-4.67 8.662-10.059 8.662h-6.905c-1.876 0-2.715-.799-2.715-2.715v-21.195zm6.106 19.6h3.952c2.674 0 4.23-1.717 4.23-4.191 0-2.476-1.558-4.15-4.23-4.15h-4.83v7.464c.001.557.321.877.878.877zm19.44-1.158c.759.68 1.717 1.197 2.834 1.197 1.477 0 2.195-.838 2.795-2.516l-8.303-16.246c-.32-.639-.601-.877-1.277-.877h-.879v-4.432h3.393c1.916 0 2.477.639 3.273 2.315l5.029 10.817c.759 1.676 1.396 3.433 1.396 3.433h.08s.479-1.597 1.118-3.433l3.911-10.817c.639-1.798 1.356-2.315 3.354-2.315h3.073v4.432h-.758c-.681 0-.959.199-1.238.877l-7.344 18.084c-1.078 2.634-2.914 5.428-6.906 5.428-2.595 0-4.99-1.236-5.908-2.115l2.357-3.832zm21.594 1.038h.559c3.475-5.349 3.992-11.976 3.992-17.724v-1.756h-2.595v-4.432h17.604c1.916 0 2.714.838 2.714 2.715v21.195h.719c1.876 0 2.595.68 2.595 2.596v7.424h-4.711v-4.711c0-.559-.318-.877-.798-.877h-17.085c-.559 0-.877.318-.877.877v4.711h-4.711v-7.424c0-1.915.678-2.594 2.594-2.594zm17.085 0V270.82c0-.559-.32-.877-.879-.877h-6.666v2.115c0 5.549-.719 12.573-3.672 17.363l11.217.002zm14.648-1.038c.759.68 1.717 1.197 2.834 1.197 1.478 0 2.195-.838 2.794-2.516l-8.303-16.246c-.318-.639-.599-.877-1.277-.877h-.878v-4.432h3.394c1.916 0 2.476.639 3.273 2.315l5.029 10.817c.758 1.676 1.396 3.433 1.396 3.433h.08s.479-1.597 1.117-3.433l3.912-10.817c.639-1.798 1.356-2.315 3.354-2.315h3.073v4.432h-.759c-.679 0-.957.199-1.236.877l-7.346 18.084c-1.077 2.634-2.914 5.428-6.905 5.428-2.595 0-4.989-1.236-5.907-2.115l2.355-3.832zm27.702-17.565c0-.559-.319-.877-.879-.877h-1.716v-4.432h5.148c1.876 0 2.675.838 2.675 2.715v20.317c0 .56.319.878.879.878h8.143v-23.91h5.229v23.91h8.98v-23.91h5.229v23.91h1.157c1.877 0 2.595.68 2.595 2.596v7.463h-4.59v-4.75c0-.559-.319-.877-.8-.877h-29.339c-1.876 0-2.714-.799-2.714-2.715l.003-20.318zm41.991-.877h-2.594v-4.432h17.124c1.916 0 2.714.838 2.714 2.715v4.312h-4.71v-1.718c0-.559-.319-.877-.878-.877h-6.428v7.425h9.222v4.431h-9.222v6.746c0 .559.319.878.878.878h6.587c.56 0 .879-.319.879-.878v-1.717h4.71v4.311c0 1.916-.798 2.715-2.714 2.715h-12.854c-1.877 0-2.715-.799-2.715-2.715l.001-21.196zm23.27 0h-2.595v-4.432h16.846c1.916 0 2.715.838 2.715 2.715v4.312h-4.75v-1.718c0-.559-.319-.877-.878-.877h-6.107v23.91h-5.229l-.002-23.91zm32.852-4.91c8.343 0 14.648 6.347 14.648 14.449 0 8.344-6.307 14.85-14.648 14.85s-14.649-6.506-14.649-14.85c-.001-8.102 6.307-14.449 14.649-14.449zm0 24.43c5.108 0 9.221-4.313 9.221-9.979 0-5.43-4.111-9.58-9.221-9.58s-9.222 4.15-9.222 9.58c.001 5.666 4.112 9.979 9.222 9.979z"/></svg>