<svg xmlns="http://www.w3.org/2000/svg" viewBox="0 0 196.3 177.7"><path fill="#FFF" d="M109.2 149.8c4.5-.2 7-3.1 6.9-7.2 0-.3 0-.6-.1-.9l-4.7 1.2c.1 1.9-.5 2.9-1.8 3-1.1 0-1.9-.6-2.2-2.3l-4.8.6c.7 4 3.7 5.7 6.7 5.6m-82.4-30.9l-12.9 5.2 5.2-12c.8-2.1 1-3.3-.2-5.4l-1-2-4 2 .7 1.4c.4.8.1 2.2-.4 3.5l-6 15c-2.3.5-3.5-1.3-3.9-3.6L0 124.7c1.5 5.5 4.7 7.8 10.5 5.5l19.3-7.7c-1-1.1-2-2.4-3-3.6m10.5 35.6l10.9-16-3.5-2.4-14.6 7.3 5.1-15.4c-1.3-1-2-2.1-3.2-3.1l-18.5 17.8c1.1 1.2 2.2 2.3 3.3 3.4L29.3 134l-4 12.5 2.9 2.2 11.6-5.3-6.4 8.8c-1.8 2.4-2.9 5.3-.1 7l3.3 2.1 2.3-3.7-1.2-.7c-1-.4-1.3-.9-.4-2.4m88.1 15.1l-1.4.4c-1.1.3-1.4-.3-1.7-1.8l-2.6-19.5-3.5 1-8.4 18.2-1.7-16.2c-2.6.3-5.2.6-7.8.6l.2 4.3c1.2 0 2.4-.1 3.6-.2l2.3 21.2 3.6-.4 8.6-18.6 1.6 11.2c.4 3.2 1.6 5.4 4.2 4.8 1.6-.4 2.7-.7 4.3-1.1l-1.3-3.9zm-53.2-20.3c-1.5-.5-3.1-.9-4.5-1.4L64.1 158c-2.9-1.1-5.6-2.3-8.3-3.6l4.1-9.5c-2.7-1.2-5.3-2.6-7.8-4l-2.3 4.1c1.3.8 2.6 1.4 4 2.1l-8.4 19.3c1.5.7 2.9 1.4 4.3 2l4.3-9.9c2.8 1.4 5.7 2.7 8.6 3.9l-1.4 4.1c-.9 2.4-1.6 5.8 1.8 6.8l4.7 1.3 1.1-4.3-2.3-.6c-.9-.3-1.1-.7-.5-2.4l6.2-18zm3.8 5.8c1.2.2 2.3.4 3.5.6l-2.3 13.6c-1.3 7.8 3.8 7.9 5.8 8.2 3.2.3 7.6.7 10.7.6l.1-4.5c-3.1-.1-6.1-.4-9.2-.6-2.4-.3-3.2-.9-2.7-4.1l.4-2.3c3.2.4 7 .7 9.9.7l.1-4.5c-3 0-6.2-.2-9.3-.6l1-5.8c3.7.5 7.4.7 11 .6v-4.4c-5.9 0-11.9-.7-17.9-1.9l-1.1 4.4zm58.5-5.1c-1.6.7-3.2.2-4-1.6-.8-1.8 0-3.3 1.5-4 1.6-.7 3.2-.2 4 1.5.8 1.8.1 3.4-1.5 4.1m-.3-.8c1.1-.5 1.7-1.6 1.1-2.9-.6-1.4-1.8-1.7-2.9-1.2-1.1.5-1.7 1.6-1.1 2.9.6 1.4 1.8 1.7 2.9 1.2m1.6-6.4l4.4-2.4 2.5 4.5.7-.4.3.7-1.4.8-2.4-4.6-2.3 1.2 2.5 4.6-.7.4-2.5-4.6-.9.5zm10.6-.2l2.3-1.5.4.7-3.8 2.4-.4-.7.8-.5-2.3-3.6-.9.5-.3-.7 3.8-2.4.4.7-2.3 1.4.9 1.5 1.8-1.2.5.7-1.9 1.1zm3.7-4l1.2 1.6-.7.5-3.5-4.8 1.6-1.2c1.3-.9 2.2-.4 2.8.3.7 1 .5 2.1-.5 2.8l-.9.8zm.3-1.2c.8-.6.8-1.1.3-1.8-.4-.6-1-.6-1.7-.1l-.8.6 1.4 1.9.8-.6zm4.4.3l-1.9-5.2-.8.7-.4-.7 1.7-1.4 5.3 3.3-.7.6-1.3-.8-1.9 1.5.5 1.4-.5.6zm-1.3-5.6l1.1 2.8 1.5-1.2-2.6-1.6zm6 .5l.8-.8-3-3.1-1 .9.8.8-.5.5-1.3-1.4 3.6-3.3 1.3 1.3-.6.5-.7-.8-1 .9 3 3.2.8-.8.5.6-2.1 2.1zm6.5-5.2c-1.2 1.3-2.9 1.5-4.3.2s-1.3-3-.2-4.3c1.2-1.3 2.8-1.5 4.3-.2 1.4 1.3 1.3 3 .2 4.3m-.6-.6c.8-.9.9-2.1-.2-3.1s-2.3-.8-3.1.1c-.8.9-.9 2.1.2 3.1s2.3.8 3.1-.1m2.5-4.9l1.6 1.3-.5.6-4.6-3.7 1.2-1.5c1-1.2 2-1 2.8-.4 1 .8 1 1.9.3 2.9l-.8.8zm0-1.2c.6-.7.5-1.3-.2-1.8-.6-.5-1.1-.3-1.6.4l-.6.8 1.8 1.4.6-.8zm-29.7 38.7c-1.6.7-3.2.2-4-1.6-.8-1.8 0-3.3 1.5-4 1.6-.7 3.2-.2 4 1.5.8 1.8.1 3.4-1.5 4.1m-.3-.8c1.1-.5 1.7-1.6 1.1-2.9-.6-1.4-1.8-1.7-2.9-1.2-1.1.5-1.7 1.6-1.1 2.9.6 1.4 1.8 1.7 2.9 1.2m5-1.5l-2.4-4.6-.9.5-.2-.8 4.1-2.2.4.7-2.6 1.4.7 1.3 1-.5c1.2-.6 2.1-.4 2.7.7.6 1.1.2 2-1 2.6l-1.8.9zm1.4-1.6c.7-.4.9-.9.5-1.5-.3-.6-.8-.8-1.5-.4l-1 .5 1 1.9 1-.5zm3.4-3.3l1 1.8-.7.4-3-5.1 1.7-1c1.4-.8 2.3-.2 2.7.6.6 1.1.2 2.2-.8 2.8l-.9.5zm.4-1.2c.8-.5 1-1 .5-1.7-.4-.6-1-.7-1.7-.3l-.9.5 1.2 2 .9-.5zm4.1.8l-1.3-5.3-.9.6-.3-.7 1.8-1.2 5 3.8-.7.5-1.2-.9-2 1.3.4 1.4-.8.5zm-.7-5.6l.8 2.9 1.6-1.1-2.4-1.8zm5.3.8c.5 0 1.1 0 1.5-.3.4-.3.8-.9.3-1.5-.4-.6-.9-.5-1.5-.1l-.6.4-.4-.6.6-.4c.4-.3.6-.8.2-1.3-.4-.5-.9-.4-1.3-.1-.4.3-.6.8-.6 1.4l-.8-.1c.1-.9.5-1.5 1-1.9.9-.7 1.8-.4 2.3.2.4.5.4 1.1.1 1.6.7-.2 1.3 0 1.6.5.7.9.4 2-.5 2.7-.6.4-1.3.6-2.1.5l.2-1zm7-3.7c-1.3 1.1-3 1.1-4.3-.4-1.2-1.5-1-3.1.3-4.3 1.3-1.1 3-1.1 4.3.4 1.3 1.5 1 3.2-.3 4.3m-.5-.6c.9-.8 1.2-2 .2-3.1s-2.2-1.1-3.1-.3c-.9.8-1.2 2-.2 3.1.9 1.2 2.2 1.1 3.1.3m-.2-6.7l1.5-1.4c.7-.7 1.6-.8 2.3-.1.5.5.5 1 .3 1.5.6-.3 1.2-.1 1.7.3.8.8.6 1.8-.2 2.5l-1.5 1.5-4.1-4.3zm3.2.3c.4-.4.3-.9 0-1.2-.3-.4-.8-.4-1.2 0l-.9.9 1.2 1.3.9-1zm2 1.9c.5-.4.5-1 0-1.4-.4-.4-1-.4-1.4 0l-1 .9 1.4 1.5 1-1zm2.7-1.6l-2.5-4.9-.7.8-.4-.6 1.5-1.6 5.7 2.5-.6.7-1.4-.6-1.6 1.8.7 1.3-.7.6zm-2-5.4l1.5 2.7 1.3-1.4-2.8-1.3zm6.1-.5l.7-.8-3.3-2.7-.9 1 .8.7-.4.5-1.4-1.1 3.1-3.9 1.4 1.2-.4.6-.8-.7-.9 1 3.3 2.8.7-.9.6.6-1.8 2.2zm4.4-5.5l1.6-2.2.7.4-2.7 3.7-.6-.5.5-.8-3.5-2.5-.6.8-.5-.5 2.6-3.7.6.5-1.6 2.2 1.4 1 1.3-1.7.6.4-1.3 1.8zm-1.6-6.6l2.3-3.7 4.3 2.7.4-.6.7.4-.8 1.3-4.3-2.8-1 1.6c2.1 1.5 4.3 2.8 3.5 4.1l-.3.5-.8-.3.2-.2c.6-.9-.5-1.6-3-3.3l-.6.9-.6-.6zm6.2-6.3c.6-1 1.6-1.5 2.7-.9.9.5 1.4 1.4.7 2.7l-1 1.8-5.2-2.8.4-.7 1.8 1 .6-1.1zm.1 1.5l2 1.1.5-1c.4-.7.3-1.3-.3-1.6-.8-.4-1.3-.3-1.7.5l-.5 1zm6.2-7.3l.3-.7.8.3-.7 1.5-2.4-1.1-1.1 2.4 2.3 1.1-.3.8-4.7-2.2-.4.9-.7-.5.8-1.5 2.3 1.1 1.1-2.4-2.3-1.1.4-.8zm-1.1-5.3c.4-1.1 1.4-1.7 2.6-1.2.9.3 1.6 1.1 1 2.6l-.7 1.8-5.5-2.1.3-.8 1.9.7.4-1zm-.9-3.4l.3-.8 4.8 1.8.3-.8.8.3-.6 1.5-5.6-2zm1.2 4.8l2.1.8.3-.9c.3-.8.2-1.3-.5-1.6-.8-.3-1.3-.1-1.6.8l-.3.9zm3.2-8.9l3.5-.9-.3 1-2.8.6 1.9 2.1-.3.9-2.4-2.7-3.2.9.3-1 2.6-.6-1.8-1.9.3-.9zm-55.7 70.6l.9-.4 3 2.9-.1-4.1.8-.3.1 4.7c.1 1.4-.2 1.8-1.2 2.2l-.4.2-.4-.8c.2 0 .4-.1.5-.1.3-.1.6-.3.7-.7l-3.9-3.6zm7.6-3.5c.7-.3 1.8-.5 2.6.1l-.4.6c-.7-.3-1.3-.2-1.9 0-1.1.5-1.6 1.7-.9 3 .7 1.4 1.9 1.6 3 1.1s1.3-1.6 1.3-1.6l.7.3s-.3 1.3-1.7 1.9c-1.6.8-3.2.3-4.1-1.4-.8-1.6-.2-3.2 1.4-4m3.4-1.6l3.8-2.2 2.5 4.4.6-.4.4.7-1.3.8-2.5-4.5-1.6.9c1.2 2.3 2.5 4.5 1.1 5.3l-.5.3-.5-.6.3-.1c.9-.5.3-1.6-1.1-4.3l-.9.5-.3-.8zm5.2-3l.8-.5 3.4 2.3-.8-4 .7-.5.9 4.7c.3 1.3.1 1.8-.8 2.4l-.4.2-.5-.8c.2 0 .4-.1.5-.2.3-.2.6-.4.6-.8l-4.4-2.8zm7.8.9l.9-.6-2.6-3.5-.8.6-.4-.7 3.7-2.6 1.1 1.5-.6.4-.6-.8-1.7 1.1 2.5 3.5.9-.6.5.7-2.4 1.7z"/><path fill="#134679" d="M152.4 86.9c-6.4 15.5-18.5 26.9-32.9 32.9l3.1 7.5c16.3-6.8 30-19.7 37.3-37.3l-7.5-3.1zM130 77.6l-7.5-3.1c-3 7.2-8.7 12.6-15.4 15.4l3.1 7.5c8.7-3.6 15.9-10.5 19.8-19.8"/><path fill="#EF465B" d="M40.1 86.9L32.6 90c6.8 16.3 19.7 30 37.3 37.3l3.1-7.5c-15.5-6.4-27-18.5-32.9-32.9m104.8-3.1c-5.6 13.4-16.1 23.3-28.5 28.5l3.1 7.5c14.4-6 26.5-17.4 32.9-32.9l-7.5-3.1zM70 74.5l-7.5 3.1c3.6 8.6 10.5 15.9 19.8 19.8l3.1-7.5c-7.3-3-12.6-8.6-15.4-15.4m45.1-3.1c-2.1 5.2-6.2 9-11 11l3.1 7.5c6.7-2.8 12.4-8.1 15.4-15.4l-7.5-3.1z"/><path fill="#862934" d="M47.6 83.8l-7.5 3.1c6 14.4 17.4 26.5 32.9 32.9l3.1-7.5c-13.5-5.5-23.4-16-28.5-28.5m29.8-12.4L70 74.5c2.8 6.7 8.1 12.4 15.4 15.4l3.1-7.5c-5.2-2.1-9.1-6.1-11.1-11"/><path fill="#B1D23E" d="M55 80.7c-4.4-10.6-4.7-22.8 0-34.1l-7.5-3.1C53.1 30 63.6 20.1 76.1 15L73 7.5c-14.4 6-26.5 17.4-32.9 32.9-6.4 15.5-5.9 32.1 0 46.5l7.5-3.1c5.2 12.5 15.1 23 28.5 28.5l3.1-7.5C67.8 100.2 59.4 91.3 55 80.7m29.9-12.4c-1.2-2.9-1.3-6.3 0-9.4l-7.5-3.1c2.1-5.2 6.2-9 11-11l-3.1-7.5C78.6 40.2 73 45.5 70 52.8c-3 7.2-2.8 15 0 21.8l7.5-3.1c2 4.8 5.8 8.9 11 11l3.1-7.5c-3.2-1.3-5.5-3.8-6.7-6.7"/><path fill="#476733" d="M76.1 15c-12.5 5.2-23 15.1-28.5 28.5l7.5 3.1c4.7-11.4 13.6-19.8 24.2-24.1L76.1 15zm12.3 29.8c-4.8 2-8.9 5.8-11 11l7.5 3.1c1.3-3.1 3.7-5.4 6.6-6.6l-3.1-7.5z"/><path fill="#7A3D57" d="M113.3 22.4l-3.1 7.5c9.3 3.9 16.2 11.1 19.8 19.8l7.5-3.1c-4.4-10.6-12.8-19.5-24.2-24.2m-12.4 29.9l-3.1 7.5c1.1.4 1.9 1.3 2.3 2.3l7.5-3.1c-1.2-3-3.5-5.4-6.7-6.7"/><path fill="#2EB1E0" d="M159.9 37.3C153.1 21 140.1 7.3 122.6 0l-3.1 7.5c15.5 6.4 26.9 18.5 32.9 32.9 6 14.4 6.4 31 0 46.5l7.5 3.1c7.3-17.5 6.7-36.4 0-52.7M130 49.7c-3.6-8.6-10.5-15.9-19.8-19.8l-3.1 7.5c7.3 3 12.6 8.7 15.4 15.4 2.8 6.7 3 14.5 0 21.8l7.5 3.1c-3.9 9.3-11.1 16.2-19.8 19.8l3.1 7.5c10.6-4.4 19.5-12.8 24.2-24.1 4.7-11.4 4.4-23.6 0-34.1l-7.5 2.9zM100.1 62c.4 1 .4 2.1 0 3.2s-1.3 1.9-2.3 2.3l3.1 7.5c2.9-1.2 5.3-3.5 6.6-6.6 1.3-3.1 1.2-6.5 0-9.4l-7.4 3z"/><path fill="#FFCB0A" d="M116.4 14.9C103 9.4 88.5 9.8 76.1 15l3.1 7.5C68.6 26.8 59.7 35.2 55 46.6l7.5 3.1c3.9-9.3 11.1-16.2 19.8-19.8 8.6-3.6 18.7-3.9 28 0l3.1-7.5c11.4 4.7 19.8 13.6 24.1 24.2l7.5-3.1c-5.2-12.5-15.2-23-28.6-28.6M104 44.8c-5.2-2.1-10.8-2-15.6 0l3.1 7.5c-2.9 1.2-5.4 3.5-6.6 6.6l7.5 3.1c.4-1.1 1.3-1.9 2.3-2.3 1-.4 2.1-.4 3.2 0l3.1-7.5c3.1 1.3 5.4 3.7 6.6 6.6l7.5-3.1C113 51 109.2 47 104 44.8"/></svg>