<svg xmlns="http://www.w3.org/2000/svg" width="135" height="135" viewBox="0 0 135 135"><path fill="#144579" d="M120.607 90.437c-6.418 15.493-18.542 26.932-32.934 32.896l3.096 7.471c16.305-6.756 30.042-19.715 37.314-37.271l-7.476-3.096zm-22.425-9.291l-7.475-3.098c-3.006 7.252-8.679 12.604-15.412 15.394l3.095 7.472c8.649-3.582 15.934-10.457 19.792-19.768"/><path fill="#EF465B" d="M8.229 90.426L.756 93.519c6.755 16.308 19.717 30.044 37.272 37.313h.001l3.098-7.476h-.003c-15.493-6.416-26.933-18.54-32.895-32.93m104.904-3.088c-5.566 13.434-16.077 23.353-28.555 28.521l3.097 7.471c14.392-5.961 26.515-17.4 32.932-32.894l-7.474-3.098zm-75.015-9.295l-7.471 3.097c3.582 8.647 10.457 15.935 19.769 19.791l3.095-7.476c-7.25-3.002-12.604-8.676-15.393-15.412m45.112-3.09c-2.15 5.19-6.211 9.021-11.029 11.02l3.094 7.47c6.734-2.789 12.406-8.142 15.41-15.394l-7.475-3.096z"/><path fill="#862833" d="M15.7 87.33l-7.472 3.095c5.963 14.392 17.402 26.516 32.896 32.932h.002l3.095-7.474C30.787 110.316 20.869 99.809 15.7 87.33m29.89-12.379l-7.472 3.09c2.79 6.738 8.144 12.412 15.393 15.414l3.097-7.476c-5.191-2.149-9.022-6.208-11.018-11.028"/><path fill="#B2D33E" d="M23.172 84.234c-4.375-10.562-4.731-22.793-.018-34.166l-7.476-3.097c5.564-13.433 16.075-23.352 28.554-28.52l-3.097-7.472C26.744 16.939 14.622 28.38 8.203 43.876c-6.418 15.495-5.934 32.155.026 46.55L15.7 87.33c5.17 12.479 15.087 22.986 28.522 28.553l3.095-7.477c-11.374-4.71-19.768-13.611-24.145-24.172M53.06 71.855a12.262 12.262 0 0 1-.004-9.401l-7.474-3.097c2.148-5.19 6.207-9.022 11.03-11.018l-3.095-7.472c-6.735 2.789-12.409 8.141-15.411 15.393v.001c-3.005 7.249-2.776 15.049.013 21.781l7.471-3.091A20.308 20.308 0 0 0 56.608 85.98l3.098-7.475a12.259 12.259 0 0 1-6.646-6.65"/><path fill="#466533" d="M44.232 18.451c-12.479 5.168-22.99 15.087-28.554 28.519l7.476 3.097c4.71-11.372 13.608-19.769 24.171-24.144l-3.093-7.472zm12.38 29.888c-4.823 1.997-8.882 5.828-11.03 11.018l7.474 3.096a12.244 12.244 0 0 1 6.651-6.642l-3.095-7.472z"/><path fill="#793C56" d="M81.492 25.904l-3.098 7.475c9.312 3.857 16.188 11.146 19.771 19.793l7.472-3.095c-4.377-10.563-12.772-19.463-24.145-24.173M69.105 55.806l-3.096 7.475a4.182 4.182 0 0 1 2.27 2.269l7.47-3.094a12.261 12.261 0 0 0-6.644-6.65"/><path fill="#2EB2E2" d="M128.053 40.792c-6.754-16.308-19.714-30.043-37.27-37.317l-3.099 7.476c15.495 6.419 26.937 18.543 32.896 32.934 5.963 14.394 6.447 31.054.027 46.55l7.478 3.096v-.003c7.269-17.553 6.723-36.431-.032-52.736m-29.889 12.38c-3.581-8.648-10.459-15.936-19.768-19.794l-3.098 7.476c7.252 3.005 12.605 8.677 15.395 15.413 2.789 6.734 3.014 14.532.012 21.782l7.477 3.098c-3.857 9.311-11.143 16.185-19.792 19.768l3.095 7.471c10.562-4.373 19.463-12.771 24.17-24.144 4.713-11.372 4.356-23.601-.018-34.165l-7.473 3.095zM68.279 65.549c.412.992.441 2.14 0 3.21a4.184 4.184 0 0 1-2.271 2.269l3.097 7.47a12.245 12.245 0 0 0 6.649-6.641 12.256 12.256 0 0 0-.005-9.402l-7.47 3.094z"/><path fill="#FFCB05" d="M84.588 18.428c-13.435-5.564-27.878-5.147-40.356.023l3.095 7.472c-10.564 4.375-19.462 12.772-24.172 24.144l7.475 3.097c3.857-9.312 11.143-16.186 19.792-19.768 8.648-3.585 18.661-3.874 27.974-.017l3.097-7.475c11.373 4.71 19.768 13.609 24.145 24.173l7.473-3.097c-5.171-12.476-15.086-22.986-28.523-28.552M72.203 48.332a20.312 20.312 0 0 0-15.592.007l3.095 7.471a12.252 12.252 0 0 0-6.65 6.644l7.476 3.096a4.175 4.175 0 0 1 2.269-2.268 4.176 4.176 0 0 1 3.208 0l3.097-7.476a12.271 12.271 0 0 1 6.644 6.65l7.471-3.094c-1.997-4.822-5.828-8.882-11.018-11.03"/></svg>