<svg xmlns="http://www.w3.org/2000/svg" id="Layer_1" viewBox="0 0 97.699997 63.700001" width="97.7" height="63.7"><style id="style3">.st0{fill:#fff}</style><path class="st0" d="M6.5 0c-.8 0-1.6.2-2.4.5l44.5 36.9L93.8.7C93 .3 92 .1 91.1.1L6.5 0z" id="path5" fill="#fff"/><path class="st0" d="M97.4 4.9l-47 38.2c-.5.4-1.1.6-1.8.6-.6 0-1.3-.2-1.8-.6L.3 4.5c-.2.6-.3 1.3-.3 2v50.6c0 .8.2 1.5.4 2.2L26.3 34c1.1-1.1 2.9-1.1 3.9 0 1.1 1.1 1 2.9 0 3.9L4.3 63.3c.7.2 1.4.4 2.2.4h84.6c.9 0 1.7-.2 2.5-.5l-26-25.4c-1.1-1.1-1.1-2.8 0-3.9s2.8-1.1 3.9 0l25.9 25.3c.2-.6.3-1.2.3-1.9V6.5c0-.5-.1-1.1-.3-1.6z" id="path7" fill="#fff"/></svg>