<svg xmlns="http://www.w3.org/2000/svg" viewBox="0 0 68.9 64.1"><path d="M-1.231-59.808c16.758-.205 32.058 6.346 43.222 17.244l5.656-5.8C35.034-60.64 17.661-68.059-1.359-67.797l.128 7.99zm.392 24.252l.131 8.13c7.849-.124 14.998 2.952 20.218 8.056l5.656-5.8A36.66 36.66 0 0 0-.84-35.556" fill="#134679"/><path d="M43.353 43.342l5.8 5.655C61.428 36.384 68.846 19.011 68.585-.009l-8.131.132c.346 16.755-6.346 32.058-17.102 43.219M-1.1-51.677c14.565-.221 27.792 5.462 37.504 14.84l5.586-5.727C30.827-53.462 15.527-60.013-1.3-59.735l.2 8.058zm21.185 72.469l5.8 5.655C32.437 19.706 36.312 10.556 36.203.514l-8.13.132c.193 7.776-2.883 14.926-7.987 20.146M-.648-19.363c5.586-.069 10.732 2.067 14.503 5.792l5.655-5.8C14.29-24.473 7.14-27.55-.708-27.424l.06 8.062z" fill="#ef465b"/><path d="M31.685 32.103A44.382 44.382 0 0 1 .333 45.616l.132 8.13c-14.565.222-27.792-5.46-37.435-14.911l-5.656 5.8C-31.46 55.531-16.162 62.082.666 61.804c16.758-.205 31.862-7.23 42.687-18.463l-5.8-5.656C46.931 27.974 52.614 14.747 52.465.251l-8.13.132c.164 12.303-4.72 23.53-12.65 31.72M8.491 9.622c-2.137 2.246-5.285 3.668-8.609 3.68l.132 8.131c-5.586.068-10.732-2.067-14.503-5.792l-5.656 5.799c5.22 5.104 12.37 8.18 20.218 8.055 7.849-.125 14.909-3.483 19.944-8.63l-5.8-5.657C17.875 11.51 20.01 6.364 20.01.705l-8.13.132c.084 3.393-1.184 6.466-3.39 8.785" fill="#b1d23e"/><path d="M-49.787-46.928C-61.99-34.245-69.482-16.942-69.22 2.08l8.13-.132c-.204-16.758 6.346-32.058 17.244-43.222C-32.948-52.44-17.917-59.534-1.159-59.74l-.132-8.13c-19.02.26-36.15 8.256-48.496 20.941m23.267 22.55c-6.552 6.742-10.426 15.892-10.318 25.933l8.131-.131c-.124-7.849 2.951-14.998 8.056-20.218 5.104-5.22 12.095-8.506 19.943-8.631l-.131-8.131A36.66 36.66 0 0 1 25.166-25.17l5.656-5.799c-8.263-8-19.559-12.81-31.79-12.577-12.303.165-23.349 5.392-31.351 13.513l5.8 5.656zM-3.326-1.895c.759-.797 1.738-1.246 3.01-1.278a4.175 4.175 0 0 1 2.928 1.13l5.656-5.8a12.35 12.35 0 0 0-8.785-3.388c-3.393.084-6.399 1.503-8.608 3.68l5.8 5.656z" fill="#2eb1e0"/></svg>