<svg xmlns="http://www.w3.org/2000/svg" viewBox="0 0 68.9 64.1"><path d="M26.777 40.284C15.032 29.291 9.035 14.84 8.949.284L.967.329c.123 16.422 6.946 32.82 20.296 45.277l5.514-5.322zM43.51 24.13l5.61-5.417C43.6 13.583 40.808 6.82 40.774.009l-7.981.046c.072 8.77 3.69 17.479 10.717 24.075" fill="#134679"/><path d="M68.247-56.926l-.049-7.558c-17.342.116-34.66 6.577-47.817 19.217l5.721 5.313c11.51-11.212 26.873-16.8 42.145-16.972m-35.86 91.793C22.15 25.341 16.98 12.834 16.832.24L8.95.284c.086 14.555 6.083 29.007 17.926 39.999l5.512-5.416zM68.54-26.698l-.048-7.557c-9.263.068-18.361 3.493-25.327 10.146l5.72 5.313c5.32-5.225 12.462-7.87 19.655-7.902M54.734 13.388c-3.915-3.664-5.98-8.48-5.977-13.426l-7.982.046c.034 6.811 2.827 13.575 8.347 18.704l5.612-5.324z" fill="#ef465b"/><path d="M68.442-41.813c11.233-.103 22.545 3.9 31.178 11.96l5.61-5.417c10.238 9.526 15.408 22.034 15.456 34.63l7.982-.046c-.086-14.555-6.083-29.008-17.926-39.999C98.998-51.678 83.617-57.1 68.247-56.926l.048 7.557c-13.301.139-26.51 5.035-36.573 14.635l5.721 5.313c8.513-8.174 19.767-12.29 31-12.392m.29 30.136c3.054-.054 6.23 1.104 8.54 3.303l5.61-5.417c3.915 3.665 5.98 8.48 5.977 13.427l7.982-.046c-.034-6.812-2.827-13.575-8.347-18.704-5.52-5.13-12.762-7.616-19.857-7.585l.048 7.557c-5.124-.004-10.21 1.951-14.18 5.66l5.722 5.312c2.32-2.28 5.353-3.452 8.505-3.507" fill="#b1d23e"/><path d="M69.42 64.082c17.34-.21 34.66-6.577 47.816-19.217l-5.72-5.313c-11.61 11.12-26.874 16.8-42.246 16.88-15.372.082-30.75-5.248-42.495-16.241l-5.61 5.417C34.513 58.066 51.977 64.2 69.418 64.082m-.293-30.229c9.263-.068 18.361-3.493 25.327-10.147l-5.72-5.312c-5.417 5.227-12.56 7.871-19.754 7.903-7.193.032-14.337-2.456-19.857-7.585l-5.61 5.417C36.484 17.533 32.865 8.824 32.793.054L24.812.1c.11 10.73 4.555 21.383 13.186 29.35 8.632 8.062 19.942 11.97 31.177 11.96l-.049-7.557zm-.29-30.135c-1.084.019-2.077-.337-2.98-1.161a3.8 3.8 0 0 1-1.234-2.685l-7.982.046c.056 2.892 1.297 5.856 3.705 8.054 2.408 2.197 5.483 3.263 8.54 3.303l-.05-7.557z" fill="#2eb1e0"/></svg>