<svg id="Layer_1" xmlns="http://www.w3.org/2000/svg" viewBox="0 0 49.8 65.8"><path fill="#7A3D57" d="M22.2,36.3l5.5,5.9c7.4-6.9,16.8-10.1,26.2-9.8l0.3-8.1C42.7,23.9,31.2,27.9,22.2,36.3 M44.3,59.9l5.5,5.9 c0.8-0.8,1.9-1.2,3-1.1l0.3-8.1C49.9,56.5,46.8,57.6,44.3,59.9"/><path fill="#2EB1E0" d="M54.9,0C37.3-0.5,19.4,5.6,5.6,18.6l5.5,5.9C23.3,13,39.1,7.6,54.7,8.1C70.2,8.6,85.6,15,97.1,27.3l5.9-5.5 l0,0C90,7.9,72.6,0.6,54.9,0 M53.9,32.4c-9.4-0.3-18.8,3-26.2,9.8l5.5,5.9c5.7-5.4,13.1-7.9,20.4-7.7c7.3,0.2,14.5,3.2,19.8,9 l5.9-5.5c6.9,7.3,10.1,16.8,9.8,26.2l8.1,0.3c0.4-11.4-3.6-23-12-32c-8.4-9-19.7-13.7-31.1-14.1L53.9,32.4z M52.8,64.7 c1.1,0,2.1,0.5,2.9,1.3c0.8,0.8,1.2,1.9,1.1,3l8.1,0.3c0.1-3.1-1-6.3-3.3-8.8c-2.3-2.5-5.4-3.8-8.6-3.9L52.8,64.7z"/><path fill="#FFCB0A" d="M16.6,30.4L16.6,30.4C6,40.3,0.5,53.7,0,67.1l8.1,0.3c-0.4,11.4,3.6,23,12,32l5.9-5.5 c-6.9-7.3-10.1-16.8-9.8-26.2c0.3-9.4,4.2-18.6,11.5-25.5l-5.5-5.9c9-8.4,20.5-12.4,32-12l0.3-8.1C40.9,15.8,27.3,20.4,16.6,30.4 M38.8,54L38.8,54c-4.1,3.8-6.3,9-6.4,14.2l8.1,0.3c-0.1,3.1,1,6.3,3.3,8.8l5.9-5.5c-0.8-0.8-1.2-1.9-1.1-3c0-1.1,0.5-2.1,1.3-2.9 l-5.5-5.9c2.5-2.3,5.7-3.4,8.8-3.3l0.3-8.1C48.1,48.3,42.9,50.2,38.8,54"/></svg>