<svg id="Layer_1" xmlns="http://www.w3.org/2000/svg" viewBox="0 0 68.8 121.5"><path fill="#134679" d="M43,95.6c-11.8,11.9-27.4,17.8-43,17.9l0,8.1c17.6,0,35.3-6.8,48.7-20.2L43,95.6z M25.8,78.5l-5.7-5.7 C14.6,78.3,7.3,81.1,0,81.1l0,8.1C9.4,89.2,18.7,85.6,25.8,78.5"/><path fill="#EF465B" d="M-60.8,52.8l-8.1,0c0,17.6,6.8,35.3,20.2,48.7l0,0l5.7-5.7C-54.8,83.9-60.8,68.4-60.8,52.8 M37.3,89.9 C27,100.2,13.5,105.4,0,105.4l0,8.1c15.6,0,31.1-6,43-17.9L37.3,89.9z M-28.5,52.7l-8.1,0c0,9.4,3.6,18.7,10.7,25.8l5.7-5.7 C-25.7,67.3-28.5,60-28.5,52.7 M14.4,67.1c-4,4-9.2,6-14.4,6l0,8.1c7.3,0,14.6-2.8,20.1-8.4L14.4,67.1z"/><path fill="#7A3D57" d="M31.5,21.1l-5.7,5.7c7.1,7.1,10.7,16.5,10.7,25.8l8.1,0C44.5,41.2,40.2,29.8,31.5,21.1 M8.6,44l-5.7,5.7 c0.8,0.8,1.2,1.9,1.2,3l8.1,0C12.2,49.5,11,46.4,8.6,44"/><path fill="#2EB1E0" d="M68.8,52.6c0-17.6-6.8-35.3-20.2-48.7l-5.7,5.7c11.9,11.8,17.8,27.4,17.9,43c0,15.6-5.9,31.2-17.7,43 l5.7,5.7l0,0C62.2,87.9,68.8,70.2,68.8,52.6 M36.5,52.6c0-9.4-3.6-18.7-10.7-25.8L20,32.5c5.6,5.5,8.3,12.8,8.4,20.1 c0,7.3-2.8,14.6-8.3,20.1l5.7,5.7C18.7,85.6,9.4,89.2,0,89.2l0,8.1c11.4,0,22.8-4.4,31.5-13.1c8.7-8.7,13-20.2,13-31.6L36.5,52.6z M4.1,52.7c0,1.1-0.4,2.1-1.2,3c-0.8,0.8-1.9,1.2-3,1.2L0,65c3.1,0,6.3-1.2,8.7-3.6c2.4-2.4,3.6-5.5,3.6-8.7L4.1,52.7z"/><path fill="#FFCB0A" d="M37.2,15.3L37.2,15.3C26.9,5.1,13.4,0-0.1,0l0,8.1c-11.4,0-22.8,4.4-31.5,13.1l5.7,5.7 c7.1-7.1,16.5-10.7,25.8-10.7c9.4,0,18.7,3.5,25.9,10.6l5.7-5.7c8.7,8.7,13.1,20.1,13.1,31.5l8.1,0C52.6,39.1,47.5,25.6,37.2,15.3 M14.3,38.3L14.3,38.3c-4-4-9.2-5.9-14.4-5.9l0,8.1c-3.1,0-6.3,1.2-8.7,3.6l5.7,5.7c0.8-0.8,1.9-1.2,3-1.2c1.1,0,2.1,0.4,3,1.2 L8.6,44c2.4,2.4,3.6,5.5,3.6,8.7l8.1,0C20.3,47.4,18.3,42.2,14.3,38.3"/></svg>