<svg id="Layer_1" xmlns="http://www.w3.org/2000/svg" viewBox="0 0 68.9 64.1"><path fill="#134679" d="M42.6,38.7C30.6,50.4,15,56.2-0.6,56l-0.1,8.1c17.6,0.2,35.3-6.4,48.9-19.7L42.6,38.7z M25.6,21.4l-5.7-5.8 C14.3,21.1,7,23.8-0.3,23.7l-0.1,8.1C9,31.9,18.4,28.4,25.6,21.4"/><path fill="#EF465B" d="M-60.8-5.3l-8.1-0.1c-0.2,17.6,6.4,35.3,19.7,48.9l0,0l5.8-5.7C-55.2,25.9-60.9,10.2-60.8-5.3 M36.9,32.9 C26.5,43.1,13,48.1-0.5,48L-0.6,56c15.6,0.2,31.2-5.6,43.2-17.4L36.9,32.9z M-28.4-5l-8.1-0.1c-0.1,9.4,3.4,18.7,10.4,25.9l5.8-5.7 C-25.8,9.6-28.5,2.3-28.4-5 M14.3,9.8c-4,3.9-9.2,5.9-14.5,5.8l-0.1,8.1c7.3,0.1,14.6-2.6,20.2-8.1L14.3,9.8z"/><path fill="#B1D23E" d="M-44.6-5.2C-44.5-16.6-40-28-31.2-36.6l-5.7-5.8c10.4-10.2,23.9-15.2,37.4-15l0.1-8.1 c-15.6-0.2-31.2,5.6-43.2,17.4c-12,11.7-18.1,27.2-18.2,42.8l8.1,0.1c-0.1,13.5,4.9,27,15,37.4l5.8-5.7 C-40.5,17.7-44.7,6.2-44.6-5.2 M-12.3-4.9c0-3.1,1.3-6.3,3.7-8.6l-5.7-5.8c4-3.9,9.2-5.9,14.5-5.8l0.1-8.1 c-7.3-0.1-14.6,2.6-20.2,8.1l0,0c-5.6,5.5-8.4,12.8-8.5,20l8.1,0.1c-0.1,5.2,1.9,10.4,5.8,14.5l5.8-5.7 C-11.1,1.4-12.3-1.7-12.3-4.9"/><path fill="#2EB1E0" d="M68.9-4.1C69-21.7,62.5-39.4,49.2-53l-5.8,5.7c11.7,12,17.5,27.6,17.3,43.2c-0.2,15.6-6.2,31.1-18.2,42.8 l5.7,5.8l0,0C61.8,31.2,68.7,13.6,68.9-4.1 M36.5-4.4c0.1-9.4-3.4-18.7-10.4-25.9l-5.8,5.7c5.5,5.6,8.2,12.9,8.1,20.2 c-0.1,7.3-2.9,14.5-8.5,20l5.7,5.8C18.4,28.4,9,31.9-0.4,31.8l-0.1,8.1C11,40,22.5,35.7,31.2,27.1c8.8-8.6,13.2-20,13.4-31.4 L36.5-4.4z M4.2-4.7c0,1.1-0.4,2.1-1.3,3C2.1-0.9,1-0.5,0-0.5l-0.1,8.1C3,7.6,6.2,6.4,8.6,4c2.4-2.4,3.6-5.5,3.7-8.6L4.2-4.7z"/></svg>