<svg id="Layer_1" xmlns="http://www.w3.org/2000/svg" viewBox="0 0 196.3 177.7"><path fill="#FFF" d="M109.2,149.8c4.5-0.2,7-3.1,6.9-7.2c0-0.3,0-0.6-0.1-0.9l-4.7,1.2c0.1,1.9-0.5,2.9-1.8,3 c-1.1,0-1.9-0.6-2.2-2.3l-4.8,0.6C103.2,148.2,106.2,149.9,109.2,149.8"/><path fill="#FFF" d="M26.8,118.9l-12.9,5.2l5.2-12c0.8-2.1,1-3.3-0.2-5.4l-1-2l-4,2l0.7,1.4c0.4,0.8,0.1,2.2-0.4,3.5l-6,15 c-2.3,0.5-3.5-1.3-3.9-3.6L0,124.7c1.5,5.5,4.7,7.8,10.5,5.5l19.3-7.7C28.8,121.4,27.8,120.1,26.8,118.9"/><path fill="#FFF" d="M37.3,154.5l10.9-16l-3.5-2.4l-14.6,7.3l5.1-15.4c-1.3-1-2-2.1-3.2-3.1l-18.5,17.8c1.1,1.2,2.2,2.3,3.3,3.4 L29.3,134l-4,12.5l2.9,2.2l11.6-5.3l-6.4,8.8c-1.8,2.4-2.9,5.3-0.1,7l3.3,2.1l2.3-3.7l-1.2-0.7C36.7,156.5,36.4,156,37.3,154.5"/><path fill="#FFF" d="M125.4,169.6L124,170c-1.1,0.3-1.4-0.3-1.7-1.8l-2.6-19.5l-3.5,1l-8.4,18.2l-1.7-16.2 c-2.6,0.3-5.2,0.6-7.8,0.6l0.2,4.3c1.2,0,2.4-0.1,3.6-0.2l2.3,21.2l3.6-0.4l8.6-18.6l1.6,11.2c0.4,3.2,1.6,5.4,4.2,4.8 c1.6-0.4,2.7-0.7,4.3-1.1L125.4,169.6z"/><path fill="#FFF" d="M72.2,149.3c-1.5-0.5-3.1-0.9-4.5-1.4L64.1,158c-2.9-1.1-5.6-2.3-8.3-3.6l4.1-9.5c-2.7-1.2-5.3-2.6-7.8-4 l-2.3,4.1c1.3,0.8,2.6,1.4,4,2.1l-8.4,19.3c1.5,0.7,2.9,1.4,4.3,2l4.3-9.9c2.8,1.4,5.7,2.7,8.6,3.9l-1.4,4.1 c-0.9,2.4-1.6,5.8,1.8,6.8l4.7,1.3l1.1-4.3l-2.3-0.6c-0.9-0.3-1.1-0.7-0.5-2.4L72.2,149.3z"/><path fill="#FFF" d="M76,155.1c1.2,0.2,2.3,0.4,3.5,0.6l-2.3,13.6c-1.3,7.8,3.8,7.9,5.8,8.2c3.2,0.3,7.6,0.7,10.7,0.6l0.1-4.5 c-3.1-0.1-6.1-0.4-9.2-0.6c-2.4-0.3-3.2-0.9-2.7-4.1l0.4-2.3c3.2,0.4,7,0.7,9.9,0.7l0.1-4.5c-3,0-6.2-0.2-9.3-0.6l1-5.8 c3.7,0.5,7.4,0.7,11,0.6l0-4.4c-5.9,0-11.9-0.7-17.9-1.9L76,155.1z"/><path fill="#FFF" d="M134.5,150c-1.6,0.7-3.2,0.2-4-1.6c-0.8-1.8,0-3.3,1.5-4c1.6-0.7,3.2-0.2,4,1.5 C136.8,147.7,136.1,149.3,134.5,150 M134.2,149.2c1.1-0.5,1.7-1.6,1.1-2.9c-0.6-1.4-1.8-1.7-2.9-1.2c-1.1,0.5-1.7,1.6-1.1,2.9 C131.9,149.4,133.1,149.7,134.2,149.2"/><path fill="#FFF" d="M135.8 142.8L140.2 140.4 142.7 144.9 143.4 144.5 143.7 145.2 142.3 146 139.9 141.4 137.6 142.6 140.1 147.2 139.4 147.6 136.9 143 136 143.5z"/><path fill="#FFF" d="M146.4 142.6L148.7 141.1 149.1 141.8 145.3 144.2 144.9 143.5 145.7 143 143.4 139.4 142.5 139.9 142.2 139.2 146 136.8 146.4 137.5 144.1 138.9 145 140.4 146.8 139.2 147.3 139.9 145.4 141z"/><path fill="#FFF" d="M150.1,138.6l1.2,1.6l-0.7,0.5l-3.5-4.8l1.6-1.2c1.3-0.9,2.2-0.4,2.8,0.3c0.7,1,0.5,2.1-0.5,2.8L150.1,138.6 z M150.4,137.4c0.8-0.6,0.8-1.1,0.3-1.8c-0.4-0.6-1-0.6-1.7-0.1l-0.8,0.6l1.4,1.9L150.4,137.4z"/><path fill="#FFF" d="M154.8,137.7l-1.9-5.2l-0.8,0.7l-0.4-0.7l1.7-1.4l5.3,3.3L158,135l-1.3-0.8l-1.9,1.5l0.5,1.4L154.8,137.7z M153.5,132.1l1.1,2.8l1.5-1.2L153.5,132.1z"/><path fill="#FFF" d="M159.5 132.6L160.3 131.8 157.3 128.7 156.3 129.6 157.1 130.4 156.6 130.9 155.3 129.5 158.9 126.2 160.2 127.5 159.6 128 158.9 127.2 157.9 128.1 160.9 131.3 161.7 130.5 162.2 131.1 160.1 133.2z"/><path fill="#FFF" d="M166,127.4c-1.2,1.3-2.9,1.5-4.3,0.2c-1.4-1.3-1.3-3-0.2-4.3c1.2-1.3,2.8-1.5,4.3-0.2 C167.2,124.4,167.1,126.1,166,127.4 M165.4,126.8c0.8-0.9,0.9-2.1-0.2-3.1c-1.1-1-2.3-0.8-3.1,0.1c-0.8,0.9-0.9,2.1,0.2,3.1 C163.4,127.9,164.6,127.7,165.4,126.8"/><path fill="#FFF" d="M167.9,121.9l1.6,1.3l-0.5,0.6l-4.6-3.7l1.2-1.5c1-1.2,2-1,2.8-0.4c1,0.8,1,1.9,0.3,2.9L167.9,121.9z M167.9,120.7c0.6-0.7,0.5-1.3-0.2-1.8c-0.6-0.5-1.1-0.3-1.6,0.4l-0.6,0.8l1.8,1.4L167.9,120.7z"/><path fill="#FFF" d="M138.2,159.4c-1.6,0.7-3.2,0.2-4-1.6c-0.8-1.8,0-3.3,1.5-4c1.6-0.7,3.2-0.2,4,1.5 C140.5,157.1,139.8,158.7,138.2,159.4 M137.9,158.6c1.1-0.5,1.7-1.6,1.1-2.9c-0.6-1.4-1.8-1.7-2.9-1.2c-1.1,0.5-1.7,1.6-1.1,2.9 C135.6,158.8,136.8,159.1,137.9,158.6"/><path fill="#FFF" d="M142.9,157.1l-2.4-4.6l-0.9,0.5l-0.2-0.8l4.1-2.2l0.4,0.7l-2.6,1.4l0.7,1.3l1-0.5c1.2-0.6,2.1-0.4,2.7,0.7 c0.6,1.1,0.2,2-1,2.6L142.9,157.1z M144.3,155.5c0.7-0.4,0.9-0.9,0.5-1.5c-0.3-0.6-0.8-0.8-1.5-0.4l-1,0.5l1,1.9L144.3,155.5z"/><path fill="#FFF" d="M147.7,152.2l1,1.8l-0.7,0.4l-3-5.1l1.7-1c1.4-0.8,2.3-0.2,2.7,0.6c0.6,1.1,0.2,2.2-0.8,2.8L147.7,152.2z M148.1,151c0.8-0.5,1-1,0.5-1.7c-0.4-0.6-1-0.7-1.7-0.3l-0.9,0.5l1.2,2L148.1,151z"/><path fill="#FFF" d="M152.2,151.8l-1.3-5.3l-0.9,0.6l-0.3-0.7l1.8-1.2l5,3.8l-0.7,0.5l-1.2-0.9l-2,1.3l0.4,1.4L152.2,151.8z M151.5,146.2l0.8,2.9l1.6-1.1L151.5,146.2z"/><path fill="#FFF" d="M156.8,147c0.5,0,1.1,0,1.5-0.3c0.4-0.3,0.8-0.9,0.3-1.5c-0.4-0.6-0.9-0.5-1.5-0.1l-0.6,0.4l-0.4-0.6 l0.6-0.4c0.4-0.3,0.6-0.8,0.2-1.3c-0.4-0.5-0.9-0.4-1.3-0.1c-0.4,0.3-0.6,0.8-0.6,1.4l-0.8-0.1c0.1-0.9,0.5-1.5,1-1.9 c0.9-0.7,1.8-0.4,2.3,0.2c0.4,0.5,0.4,1.1,0.1,1.6c0.7-0.2,1.3,0,1.6,0.5c0.7,0.9,0.4,2-0.5,2.7c-0.6,0.4-1.3,0.6-2.1,0.5L156.8,147 z"/><path fill="#FFF" d="M163.8,143.3c-1.3,1.1-3,1.1-4.3-0.4c-1.2-1.5-1-3.1,0.3-4.3c1.3-1.1,3-1.1,4.3,0.4 C165.4,140.5,165.1,142.2,163.8,143.3 M163.3,142.7c0.9-0.8,1.2-2,0.2-3.1c-1-1.1-2.2-1.1-3.1-0.3c-0.9,0.8-1.2,2-0.2,3.1 C161.1,143.6,162.4,143.5,163.3,142.7"/><path fill="#FFF" d="M163.1,136l1.5-1.4c0.7-0.7,1.6-0.8,2.3-0.1c0.5,0.5,0.5,1,0.3,1.5c0.6-0.3,1.2-0.1,1.7,0.3 c0.8,0.8,0.6,1.8-0.2,2.5l-1.5,1.5L163.1,136z M166.3,136.3c0.4-0.4,0.3-0.9,0-1.2c-0.3-0.4-0.8-0.4-1.2,0l-0.9,0.9l1.2,1.3 L166.3,136.3z M168.3,138.2c0.5-0.4,0.5-1,0-1.4c-0.4-0.4-1-0.4-1.4,0l-1,0.9l1.4,1.5L168.3,138.2z"/><path fill="#FFF" d="M171,136.6l-2.5-4.9l-0.7,0.8l-0.4-0.6l1.5-1.6l5.7,2.5l-0.6,0.7l-1.4-0.6l-1.6,1.8l0.7,1.3L171,136.6z M169,131.2l1.5,2.7l1.3-1.4L169,131.2z"/><path fill="#FFF" d="M175.1 130.7L175.8 129.9 172.5 127.2 171.6 128.2 172.4 128.9 172 129.4 170.6 128.3 173.7 124.4 175.1 125.6 174.7 126.2 173.9 125.5 173 126.5 176.3 129.3 177 128.4 177.6 129 175.8 131.2z"/><path fill="#FFF" d="M179.5 125.2L181.1 123 181.8 123.4 179.1 127.1 178.5 126.6 179 125.8 175.5 123.3 174.9 124.1 174.4 123.6 177 119.9 177.6 120.4 176 122.6 177.4 123.6 178.7 121.9 179.3 122.3 178 124.1z"/><path fill="#FFF" d="M177.9,118.6l2.3-3.7l4.3,2.7l0.4-0.6l0.7,0.4l-0.8,1.3l-4.3-2.8l-1,1.6c2.1,1.5,4.3,2.8,3.5,4.1l-0.3,0.5 l-0.8-0.3l0.2-0.2c0.6-0.9-0.5-1.6-3-3.3l-0.6,0.9L177.9,118.6z"/><path fill="#FFF" d="M184.1,112.3c0.6-1,1.6-1.5,2.7-0.9c0.9,0.5,1.4,1.4,0.7,2.7l-1,1.8l-5.2-2.8l0.4-0.7l1.8,1L184.1,112.3z M184.2,113.8l2,1.1l0.5-1c0.4-0.7,0.3-1.3-0.3-1.6c-0.8-0.4-1.3-0.3-1.7,0.5L184.2,113.8z"/><path fill="#FFF" d="M190.4 106.5L190.7 105.8 191.5 106.1 190.8 107.6 188.4 106.5 187.3 108.9 189.6 110 189.3 110.8 184.6 108.6 184.2 109.5 183.5 109 184.3 107.5 186.6 108.6 187.7 106.2 185.4 105.1 185.8 104.3z"/><path fill="#FFF" d="M189.3,101.2c0.4-1.1,1.4-1.7,2.6-1.2c0.9,0.3,1.6,1.1,1,2.6l-0.7,1.8l-5.5-2.1l0.3-0.8l1.9,0.7L189.3,101.2 z M188.4,97.8l0.3-0.8l4.8,1.8l0.3-0.8l0.8,0.3l-0.6,1.5L188.4,97.8z M189.6,102.6l2.1,0.8l0.3-0.9c0.3-0.8,0.2-1.3-0.5-1.6 c-0.8-0.3-1.3-0.1-1.6,0.8L189.6,102.6z"/><path fill="#FFF" d="M192.8 93.7L196.3 92.8 196 93.8 193.2 94.4 195.1 96.5 194.8 97.4 192.4 94.7 189.2 95.6 189.5 94.6 192.1 94 190.3 92.1 190.6 91.2z"/><path fill="#FFF" d="M137.1,164.3l0.9-0.4l3,2.9l-0.1-4.1l0.8-0.3l0.1,4.7c0.1,1.4-0.2,1.8-1.2,2.2l-0.4,0.2l-0.4-0.8 c0.2,0,0.4-0.1,0.5-0.1c0.3-0.1,0.6-0.3,0.7-0.7L137.1,164.3z"/><path fill="#FFF" d="M144.7,160.8c0.7-0.3,1.8-0.5,2.6,0.1l-0.4,0.6c-0.7-0.3-1.3-0.2-1.9,0c-1.1,0.5-1.6,1.7-0.9,3 c0.7,1.4,1.9,1.6,3,1.1c1.1-0.5,1.3-1.6,1.3-1.6l0.7,0.3c0,0-0.3,1.3-1.7,1.9c-1.6,0.8-3.2,0.3-4.1-1.4 C142.5,163.2,143.1,161.6,144.7,160.8"/><path fill="#FFF" d="M148.1,159.2l3.8-2.2l2.5,4.4l0.6-0.4l0.4,0.7l-1.3,0.8l-2.5-4.5l-1.6,0.9c1.2,2.3,2.5,4.5,1.1,5.3l-0.5,0.3 l-0.5-0.6l0.3-0.1c0.9-0.5,0.3-1.6-1.1-4.3l-0.9,0.5L148.1,159.2z"/><path fill="#FFF" d="M153.3,156.2l0.8-0.5l3.4,2.3l-0.8-4l0.7-0.5l0.9,4.7c0.3,1.3,0.1,1.8-0.8,2.4l-0.4,0.2l-0.5-0.8 c0.2,0,0.4-0.1,0.5-0.2c0.3-0.2,0.6-0.4,0.6-0.8L153.3,156.2z"/><path fill="#FFF" d="M161.1 157.1L162 156.5 159.4 153 158.6 153.6 158.2 152.9 161.9 150.3 163 151.8 162.4 152.2 161.8 151.4 160.1 152.5 162.6 156 163.5 155.4 164 156.1 161.6 157.8z"/><path fill="#134679" d="M152.4,86.9c-6.4,15.5-18.5,26.9-32.9,32.9l3.1,7.5c16.3-6.8,30-19.7,37.3-37.3L152.4,86.9z M130,77.6 l-7.5-3.1c-3,7.2-8.7,12.6-15.4,15.4l3.1,7.5C118.9,93.8,126.1,86.9,130,77.6"/><path fill="#EF465B" d="M40.1,86.9L32.6,90c6.8,16.3,19.7,30,37.3,37.3h0l3.1-7.5C57.5,113.4,46,101.3,40.1,86.9 M144.9,83.8 c-5.6,13.4-16.1,23.3-28.5,28.5l3.1,7.5c14.4-6,26.5-17.4,32.9-32.9L144.9,83.8z M70,74.5l-7.5,3.1c3.6,8.6,10.5,15.9,19.8,19.8 l3.1-7.5C78.1,86.9,72.8,81.3,70,74.5 M115.1,71.4c-2.1,5.2-6.2,9-11,11l3.1,7.5c6.7-2.8,12.4-8.1,15.4-15.4L115.1,71.4z"/><path fill="#862934" d="M47.6,83.8l-7.5,3.1c6,14.4,17.4,26.5,32.9,32.9l3.1-7.5C62.6,106.8,52.7,96.3,47.6,83.8 M77.4,71.4 L70,74.5c2.8,6.7,8.1,12.4,15.4,15.4l3.1-7.5C83.3,80.3,79.4,76.3,77.4,71.4"/><path fill="#B1D23E" d="M55,80.7c-4.4-10.6-4.7-22.8,0-34.1l-7.5-3.1C53.1,30,63.6,20.1,76.1,15L73,7.5 c-14.4,6-26.5,17.4-32.9,32.9c-6.4,15.5-5.9,32.1,0,46.5l7.5-3.1c5.2,12.5,15.1,23,28.5,28.5l3.1-7.5C67.8,100.2,59.4,91.3,55,80.7 M84.9,68.3c-1.2-2.9-1.3-6.3,0-9.4l-7.5-3.1c2.1-5.2,6.2-9,11-11l-3.1-7.5C78.6,40.2,73,45.5,70,52.8v0c-3,7.2-2.8,15,0,21.8 l7.5-3.1c2,4.8,5.8,8.9,11,11l3.1-7.5C88.4,73.7,86.1,71.2,84.9,68.3"/><path fill="#476733" d="M76.1,15c-12.5,5.2-23,15.1-28.5,28.5l7.5,3.1c4.7-11.4,13.6-19.8,24.2-24.1L76.1,15z M88.4,44.8 c-4.8,2-8.9,5.8-11,11l7.5,3.1c1.3-3.1,3.7-5.4,6.6-6.6L88.4,44.8z"/><path fill="#7A3D57" d="M113.3,22.4l-3.1,7.5c9.3,3.9,16.2,11.1,19.8,19.8l7.5-3.1C133.1,36,124.7,27.1,113.3,22.4 M100.9,52.3 l-3.1,7.5c1.1,0.4,1.9,1.3,2.3,2.3l7.5-3.1C106.4,56,104.1,53.6,100.9,52.3"/><path fill="#2EB1E0" d="M159.9,37.3C153.1,21,140.1,7.3,122.6,0l-3.1,7.5c15.5,6.4,26.9,18.5,32.9,32.9c6,14.4,6.4,31,0,46.5 l7.5,3.1v0C167.2,72.5,166.6,53.6,159.9,37.3 M130,49.7c-3.6-8.6-10.5-15.9-19.8-19.8l-3.1,7.5c7.3,3,12.6,8.7,15.4,15.4 c2.8,6.7,3,14.5,0,21.8l7.5,3.1c-3.9,9.3-11.1,16.2-19.8,19.8l3.1,7.5c10.6-4.4,19.5-12.8,24.2-24.1c4.7-11.4,4.4-23.6,0-34.1 L130,49.7z M100.1,62c0.4,1,0.4,2.1,0,3.2c-0.4,1.1-1.3,1.9-2.3,2.3l3.1,7.5c2.9-1.2,5.3-3.5,6.6-6.6c1.3-3.1,1.2-6.5,0-9.4 L100.1,62z"/><path fill="#FFCB0A" d="M116.4,14.9L116.4,14.9C103,9.4,88.5,9.8,76.1,15l3.1,7.5C68.6,26.8,59.7,35.2,55,46.6l7.5,3.1 c3.9-9.3,11.1-16.2,19.8-19.8c8.6-3.6,18.7-3.9,28,0l3.1-7.5c11.4,4.7,19.8,13.6,24.1,24.2l7.5-3.1C139.8,31,129.8,20.5,116.4,14.9 M104,44.8L104,44.8c-5.2-2.1-10.8-2-15.6,0l3.1,7.5c-2.9,1.2-5.4,3.5-6.6,6.6l7.5,3.1c0.4-1.1,1.3-1.9,2.3-2.3 c1-0.4,2.1-0.4,3.2,0l3.1-7.5c3.1,1.3,5.4,3.7,6.6,6.6l7.5-3.1C113,51,109.2,47,104,44.8"/></svg>