<?xml version="1.0" encoding="UTF-8" standalone="no"?>
<!-- Generator: Adobe Illustrator 19.2.1, SVG Export Plug-In . SVG Version: 6.00 Build 0)  -->

<svg
   xmlns:dc="http://purl.org/dc/elements/1.1/"
   xmlns:cc="http://creativecommons.org/ns#"
   xmlns:rdf="http://www.w3.org/1999/02/22-rdf-syntax-ns#"
   xmlns:svg="http://www.w3.org/2000/svg"
   xmlns="http://www.w3.org/2000/svg"
   xmlns:sodipodi="http://sodipodi.sourceforge.net/DTD/sodipodi-0.dtd"
   xmlns:inkscape="http://www.inkscape.org/namespaces/inkscape"
   version="1.1"
   id="Layer_1"
   x="0px"
   y="0px"
   viewBox="0 0 97.699997 63.700001"
   xml:space="preserve"
   inkscape:version="0.91 r13725"
   sodipodi:docname="mail.svg"
   width="97.699997"
   height="63.700001"><metadata
     id="metadata13"><rdf:RDF><cc:Work
         rdf:about=""><dc:format>image/svg+xml</dc:format><dc:type
           rdf:resource="http://purl.org/dc/dcmitype/StillImage" /><dc:title></dc:title></cc:Work></rdf:RDF></metadata><defs
     id="defs11" /><sodipodi:namedview
     pagecolor="#ffffff"
     bordercolor="#666666"
     borderopacity="1"
     objecttolerance="10"
     gridtolerance="10"
     guidetolerance="10"
     inkscape:pageopacity="0"
     inkscape:pageshadow="2"
     inkscape:window-width="1365"
     inkscape:window-height="685"
     id="namedview9"
     showgrid="false"
     inkscape:zoom="1.888"
     inkscape:cx="33.210169"
     inkscape:cy="22.8"
     inkscape:window-x="0"
     inkscape:window-y="0"
     inkscape:window-maximized="0"
     inkscape:current-layer="Layer_1"
     fit-margin-top="0"
     fit-margin-left="0"
     fit-margin-right="0"
     fit-margin-bottom="0" /><style
     type="text/css"
     id="style3">
	.st0{fill:#FFFFFF;}
</style><path
     class="st0"
     d="M 6.5,0 C 5.7,0 4.9,0.2 4.1,0.5 L 48.6,37.4 93.8,0.7 C 93,0.3 92,0.1 91.1,0.1 L 6.5,0 l 0,0 z"
     id="path5"
     style="fill:#ffffff;fill-opacity:1"
     inkscape:connector-curvature="0" /><path
     class="st0"
     d="m 97.4,4.9 -47,38.2 c -0.5,0.4 -1.1,0.6 -1.8,0.6 -0.6,0 -1.3,-0.2 -1.8,-0.6 L 0.3,4.5 C 0.1,5.1 0,5.8 0,6.5 l 0,50.6 c 0,0.8 0.2,1.5 0.4,2.2 L 26.3,34 c 1.1,-1.1 2.9,-1.1 3.9,0 1.1,1.1 1,2.9 0,3.9 L 4.3,63.3 c 0.7,0.2 1.4,0.4 2.2,0.4 l 84.6,0 c 0.9,0 1.7,-0.2 2.5,-0.5 l -26,-25.4 c -1.1,-1.1 -1.1,-2.8 0,-3.9 1.1,-1.1 2.8,-1.1 3.9,0 l 25.9,25.3 c 0.2,-0.6 0.3,-1.2 0.3,-1.9 l 0,-50.8 C 97.7,6 97.6,5.4 97.4,4.9 Z"
     id="path7"
     style="fill:#ffffff;fill-opacity:1"
     inkscape:connector-curvature="0" /></svg>