<svg id="SvgjsSvg1000" xmlns="http://www.w3.org/2000/svg" version="1.1" xmlns:xlink="http://www.w3.org/1999/xlink" xmlns:svgjs="http://svgjs.com/svgjs" width="25" height="26"><defs id="SvgjsDefs1001"><clipPath id="SvgjsClipPath1009"><path id="SvgjsPath1008" d="M277.05 334C282.601 334 287.1 338.486 287.1 344.02C287.1 346.10336 286.46237 348.03834 285.37103 349.64137999999997C285.49046000000004 349.71774 285.60355000000004 349.80794999999995 285.708 349.912L291.39300000000003 355.58099999999996C292.17800000000005 356.36299999999994 292.17800000000005 357.63199999999995 291.39300000000003 358.41499999999996C290.608 359.198 289.33500000000004 359.198 288.55 358.41499999999996L282.865 352.74699999999996C282.75421 352.63649 282.65906 352.51631999999995 282.57954 352.38921999999997C280.9934 353.43325 279.09295000000003 354.04099999999994 277.05 354.04099999999994C271.5 354.04099999999994 267 349.5539999999999 267 344.0199999999999C267 338.48599999999993 271.5 333.99999999999994 277.05 333.99999999999994Z " fill="#ffffff"></path></clipPath></defs><path id="SvgjsPath1007" d="M277.05 334C282.601 334 287.1 338.486 287.1 344.02C287.1 346.10336 286.46237 348.03834 285.37103 349.64137999999997C285.49046000000004 349.71774 285.60355000000004 349.80794999999995 285.708 349.912L291.39300000000003 355.58099999999996C292.17800000000005 356.36299999999994 292.17800000000005 357.63199999999995 291.39300000000003 358.41499999999996C290.608 359.198 289.33500000000004 359.198 288.55 358.41499999999996L282.865 352.74699999999996C282.75421 352.63649 282.65906 352.51631999999995 282.57954 352.38921999999997C280.9934 353.43325 279.09295000000003 354.04099999999994 277.05 354.04099999999994C271.5 354.04099999999994 267 349.5539999999999 267 344.0199999999999C267 338.48599999999993 271.5 333.99999999999994 277.05 333.99999999999994Z " fill-opacity="0" fill="#ffffff" stroke-dasharray="0" stroke-linejoin="miter" stroke-linecap="butt" stroke-opacity="1" stroke="#ef465b" stroke-miterlimit="50" stroke-width="6" clip-path="url(&quot;#SvgjsClipPath1009&quot;)" transform="matrix(1,0,0,1,-267,-334)"></path></svg>