<?xml version="1.0" encoding="utf-8"?>
<!-- Generator: Adobe Illustrator 18.0.0, SVG Export Plug-In . SVG Version: 6.00 Build 0)  -->
<!DOCTYPE svg PUBLIC "-//W3C//DTD SVG 1.1//EN" "http://www.w3.org/Graphics/SVG/1.1/DTD/svg11.dtd">
<svg version="1.1" id="Layer_1" xmlns="http://www.w3.org/2000/svg" xmlns:xlink="http://www.w3.org/1999/xlink" x="0px" y="0px"
	 viewBox="0 0 52 59.8" enable-background="new 0 0 52 59.8" xml:space="preserve">
<g>
	<path fill="#7A3D57" d="M28.8,37.5l5.8,5.7C41.7,36,51,32.4,60.4,32.3l-0.1-8.1C48.9,24.3,37.5,28.7,28.8,37.5 M51.9,60.2l5.8,5.7
		c0.8-0.8,1.9-1.2,3-1.2l0-8.1C57.4,56.6,54.2,57.8,51.9,60.2"/>
	<path fill="#2EB1E0" d="M60.2,0C42.5,0.1,24.9,6.9,11.6,20.4l5.8,5.7c11.8-11.9,27.3-17.9,42.9-18c15.6-0.1,31.2,5.7,43.1,17.5
		l5.7-5.8l0,0C95.5,6.5,77.8-0.1,60.2,0 M60.4,32.3C51,32.4,41.7,36,34.6,43.2l5.8,5.7c5.5-5.6,12.8-8.4,20.1-8.4
		c7.3,0,14.6,2.7,20.2,8.2l5.7-5.8c7.2,7.1,10.8,16.4,10.8,25.8l8.1,0c-0.1-11.4-4.5-22.8-13.2-31.5c-8.8-8.6-20.2-12.9-31.6-12.9
		L60.4,32.3z M60.6,64.7c1.1,0,2.1,0.4,3,1.2c0.8,0.8,1.2,1.9,1.2,3l8.1-0.1c0-3.1-1.2-6.3-3.6-8.7c-2.4-2.4-5.6-3.6-8.7-3.5
		L60.6,64.7z"/>
	<path fill="#FFCB0A" d="M23.1,31.8L23.1,31.8C12.9,42.2,7.8,55.7,7.9,69.2l8.1,0c0.1,11.4,4.5,22.8,13.2,31.5l5.7-5.8
		c-7.2-7.1-10.8-16.4-10.8-25.8c-0.1-9.4,3.4-18.7,10.5-25.9l-5.8-5.7c8.6-8.8,20-13.2,31.5-13.2l-0.1-8.1
		C46.8,16.3,33.3,21.5,23.1,31.8 M46.1,54.5L46.1,54.5c-3.9,4-5.9,9.2-5.9,14.4l8.1-0.1c0,3.1,1.2,6.3,3.6,8.7l5.7-5.8
		c-0.8-0.8-1.2-1.9-1.2-3c0-1.1,0.4-2.1,1.2-3l-5.8-5.7c2.4-2.4,5.5-3.6,8.7-3.6l0-8.1C55.3,48.5,50.1,50.5,46.1,54.5"/>
</g>
</svg>
