<?xml version="1.0" encoding="utf-8"?>
<!-- Generator: Adobe Illustrator 16.0.0, SVG Export Plug-In . SVG Version: 6.00 Build 0)  -->
<!DOCTYPE svg PUBLIC "-//W3C//DTD SVG 1.1//EN" "http://www.w3.org/Graphics/SVG/1.1/DTD/svg11.dtd">
<svg version="1.1" id="Layer_1" xmlns="http://www.w3.org/2000/svg" xmlns:xlink="http://www.w3.org/1999/xlink" x="0px" y="0px"
	 width="135px" height="135px" viewBox="0 0 135 135" enable-background="new 0 0 135 135" xml:space="preserve">
<path fill="#144579" d="M120.607,90.437c-6.418,15.493-18.542,26.932-32.934,32.896l3.096,7.471
	c16.305-6.756,30.042-19.715,37.314-37.271L120.607,90.437z M98.182,81.146l-7.475-3.098c-3.006,7.252-8.679,12.604-15.412,15.394
	l3.095,7.472C87.039,97.332,94.324,90.457,98.182,81.146"/>
<path fill="#EF465B" d="M8.229,90.426l-7.473,3.093c6.755,16.308,19.717,30.044,37.272,37.313h0.001l3.098-7.476h-0.003
	C25.631,116.94,14.191,104.816,8.229,90.426 M113.133,87.338c-5.566,13.434-16.077,23.353-28.555,28.521l3.097,7.471
	c14.392-5.961,26.515-17.4,32.932-32.894L113.133,87.338z M38.118,78.043l-7.471,3.097c3.582,8.647,10.457,15.935,19.769,19.791
	l3.095-7.476C46.261,90.453,40.907,84.779,38.118,78.043 M83.23,74.953c-2.15,5.19-6.211,9.021-11.029,11.02l3.094,7.47
	c6.734-2.789,12.406-8.142,15.41-15.394L83.23,74.953z"/>
<path fill="#862833" d="M15.7,87.33l-7.472,3.095c5.963,14.392,17.402,26.516,32.896,32.932h0.002l3.095-7.474
	C30.787,110.316,20.869,99.809,15.7,87.33 M45.59,74.951l-7.472,3.09c2.79,6.738,8.144,12.412,15.393,15.414l3.097-7.476
	C51.417,83.83,47.586,79.771,45.59,74.951"/>
<path fill="#B2D33E" d="M23.172,84.234c-4.375-10.562-4.731-22.793-0.018-34.166l-7.476-3.097
	c5.564-13.433,16.075-23.352,28.554-28.52l-3.097-7.472C26.744,16.939,14.622,28.38,8.203,43.876
	c-6.418,15.495-5.934,32.155,0.026,46.55L15.7,87.33c5.17,12.479,15.087,22.986,28.522,28.553l3.095-7.477
	C35.943,103.696,27.549,94.795,23.172,84.234 M53.06,71.855c-1.201-2.906-1.3-6.272-0.004-9.401l-7.474-3.097
	c2.148-5.19,6.207-9.022,11.03-11.018l-3.095-7.472c-6.735,2.789-12.409,8.141-15.411,15.393v0.001
	c-3.005,7.249-2.776,15.049,0.013,21.781l7.471-3.091c1.996,4.82,5.828,8.879,11.018,11.029l3.098-7.475
	C56.576,77.207,54.264,74.76,53.06,71.855"/>
<path fill="#466533" d="M44.232,18.451c-12.479,5.168-22.99,15.087-28.554,28.519l7.476,3.097
	c4.71-11.372,13.608-19.769,24.171-24.144L44.232,18.451z M56.612,48.339c-4.823,1.997-8.882,5.828-11.03,11.018l7.474,3.096
	c1.295-3.126,3.743-5.439,6.651-6.642L56.612,48.339z"/>
<path fill="#793C56" d="M81.492,25.904l-3.098,7.475c9.312,3.857,16.188,11.146,19.771,19.793l7.472-3.095
	C101.26,39.514,92.865,30.614,81.492,25.904 M69.105,55.806l-3.096,7.475c1.07,0.444,1.86,1.278,2.27,2.269l7.47-3.094
	C74.546,59.551,72.232,57.104,69.105,55.806"/>
<path fill="#2EB2E2" d="M128.053,40.792c-6.754-16.308-19.714-30.043-37.27-37.317l-3.099,7.476
	c15.495,6.419,26.937,18.543,32.896,32.934c5.963,14.394,6.447,31.054,0.027,46.55l7.478,3.096v-0.003
	C135.354,75.975,134.808,57.097,128.053,40.792 M98.164,53.172c-3.581-8.648-10.459-15.936-19.768-19.794l-3.098,7.476
	c7.252,3.005,12.605,8.677,15.395,15.413c2.789,6.734,3.014,14.532,0.012,21.782l7.477,3.098
	c-3.857,9.311-11.143,16.185-19.792,19.768l3.095,7.471c10.562-4.373,19.463-12.771,24.17-24.144
	c4.713-11.372,4.356-23.601-0.018-34.165L98.164,53.172z M68.279,65.549c0.412,0.992,0.441,2.14,0,3.21
	c-0.443,1.067-1.277,1.858-2.271,2.269l3.097,7.47c2.904-1.203,5.354-3.513,6.649-6.641c1.296-3.133,1.198-6.494-0.005-9.402
	L68.279,65.549z"/>
<path fill="#FFCB05" d="M84.588,18.428L84.588,18.428c-13.435-5.564-27.878-5.147-40.356,0.023l3.095,7.472
	c-10.564,4.375-19.462,12.772-24.172,24.144l7.475,3.097c3.857-9.312,11.143-16.186,19.792-19.768
	c8.648-3.585,18.661-3.874,27.974-0.017l3.097-7.475c11.373,4.71,19.768,13.609,24.145,24.173l7.473-3.097
	C107.94,34.504,98.025,23.994,84.588,18.428 M72.203,48.332L72.203,48.332c-5.191-2.15-10.771-1.99-15.592,0.007l3.095,7.471
	c-2.907,1.204-5.355,3.518-6.65,6.644l7.476,3.096c0.441-1.068,1.278-1.858,2.269-2.268c0.99-0.41,2.137-0.444,3.208,0l3.097-7.476
	c3.127,1.298,5.438,3.745,6.644,6.65l7.471-3.094C81.224,54.54,77.393,50.48,72.203,48.332"/>
<path fill="#77787B" d="M64.403,67.154"/>
<path fill="#77787B" d="M64.403,67.154"/>
<path fill="#77787B" d="M64.403,67.154"/>
</svg>
