<svg xmlns="http://www.w3.org/2000/svg" width="25" height="26"><defs><clipPath id="a"><path d="M277.05 334c5.551 0 10.05 4.486 10.05 10.02a9.955 9.955 0 0 1-1.729 5.621c.12.077.233.167.337.271l5.685 5.669a2 2 0 0 1 0 2.834 2.014 2.014 0 0 1-2.843 0l-5.685-5.668c-.11-.11-.206-.23-.285-.358a10.024 10.024 0 0 1-5.53 1.652c-5.55 0-10.05-4.487-10.05-10.021 0-5.534 4.5-10.02 10.05-10.02z" fill="#fff"/></clipPath></defs><path d="M277.05 334c5.551 0 10.05 4.486 10.05 10.02a9.955 9.955 0 0 1-1.729 5.621c.12.077.233.167.337.271l5.685 5.669a2 2 0 0 1 0 2.834 2.014 2.014 0 0 1-2.843 0l-5.685-5.668c-.11-.11-.206-.23-.285-.358a10.024 10.024 0 0 1-5.53 1.652c-5.55 0-10.05-4.487-10.05-10.021 0-5.534 4.5-10.02 10.05-10.02z" fill-opacity="0" fill="#fff" stroke-dasharray="0" stroke="#ef465b" stroke-miterlimit="50" stroke-width="6" clip-path="url(&amp;quot;#a&amp;quot;)" transform="translate(-267 -334)"/></svg>