<?xml version="1.0" encoding="utf-8"?>
<!-- Generator: Adobe Illustrator 16.0.3, SVG Export Plug-In . SVG Version: 6.00 Build 0)  -->
<!DOCTYPE svg PUBLIC "-//W3C//DTD SVG 1.1//EN" "http://www.w3.org/Graphics/SVG/1.1/DTD/svg11.dtd">
<svg version="1.1" id="Layer_1" xmlns="http://www.w3.org/2000/svg" xmlns:xlink="http://www.w3.org/1999/xlink" x="0px" y="0px"
	 width="1000px" height="350px" viewBox="0 0 1000 350" enable-background="new 0 0 1000 350" xml:space="preserve">
<g>
	<path fill="#FFFFFF" d="M761.329,148.67V65.078h-20.791v44.348h-40.94V65.078h-37.98l2.754,19.092H678.8v92.5h20.798v-46.878h40.94
		v22.696c0,17.817,6.576,24.183,17.612,24.183h12.727l4.456-18.877h-7.853C762.184,157.793,761.329,153.968,761.329,148.67"/>
	<path fill="#FFFFFF" d="M649.312,153.127l-9.329-88.045h-18.886l-26.943,60.893l-29.275-60.893h-18.673l-11.454,111.596h21.216
		l7.217-73.834l22.479,47.097h16.132l21.217-47.097l5.725,52.192c1.697,15.271,5.092,21.644,17.823,21.644h11.027l4.031-17.187
		h-7.003C651.648,159.492,649.95,158.424,649.312,153.127"/>
	<path fill="#FFFFFF" d="M813.522,142.726v-13.151h35.857l4.241-19.518h-40.1V85.662H863.8l-3.18-20.58h-79.771l-3.604,20.58h15.694
		v61.31c0,27.16,20.155,29.708,24.396,29.708h43.924l4.666-20.374h-40.951C818.188,156.305,813.522,155.245,813.522,142.726"/>
	<path fill="#FFFFFF" d="M983.253,157.793c-5.307,0-6.162-3.818-6.162-9.123V65.082h-17.811l-49.23,74.465V65.082h-37.975
		l2.969,19.092h14.43v92.503h18.245l49.011-74.472v50.282c0,17.817,6.575,24.189,17.604,24.189h12.311l4.456-18.884L983.253,157.793
		L983.253,157.793z"/>
	<path fill="#FFFFFF" d="M487.486,125.246l-19.353-44.04c-5.306-11.877-10.397-16.124-19.521-16.124h-9.334l-7.43,18.881h3.608
		c9.55,0,12.303,5.088,15.915,12.517l26.19,54.415c-2.57,4.645-5.501,6.899-10.068,6.899c-4.031,0-8.91-1.698-12.943-5.095
		l-9.331,16.548c6.153,5.306,14.002,8.483,22.484,8.483c12.095,0,20.8-4.237,28.217-22.694l35.86-89.953h-22.277L487.486,125.246z"
		/>
	<path fill="#FFFFFF" d="M933.602,60.415c13.79,0,29.069-6.793,30.339-28.43h-21.426c-0.211,9.12-4.877,11.025-8.913,11.025
		c-4.031,0-8.699-1.906-8.913-11.025h-21.422C904.535,53.622,919.818,60.415,933.602,60.415"/>
</g>
<g>
	<path fill="#144579" d="M316.067,233.333c-16.658,40.211-48.125,69.897-85.477,85.379l8.034,19.39
		c42.318-17.535,77.973-51.17,96.848-96.735L316.067,233.333z M257.863,209.221l-19.399-8.039
		c-7.802,18.821-22.524,32.713-40.001,39.952l8.032,19.394C228.943,251.23,247.851,233.387,257.863,209.221"/>
	<path fill="#EF465B" d="M24.396,233.307L5,241.331c17.532,42.327,51.174,77.979,96.735,96.847h0.006l8.039-19.402h-0.011
		C69.562,302.122,39.871,270.654,24.396,233.307 M296.667,225.291c-14.446,34.866-41.728,60.609-74.111,74.025l8.037,19.39
		c37.353-15.472,68.816-45.162,85.473-85.373L296.667,225.291z M101.969,201.166l-19.391,8.037
		c9.297,22.443,27.141,41.355,51.311,51.367l8.032-19.403C123.105,233.375,109.208,218.65,101.969,201.166 M219.059,193.146
		c-5.583,13.471-16.121,23.414-28.626,28.601l8.03,19.387c17.479-7.237,32.199-21.131,39.996-39.952L219.059,193.146z"/>
	<path fill="#862833" d="M43.787,225.271l-19.393,8.031c15.477,37.352,45.164,68.819,85.377,85.473h0.005l8.033-19.397
		C82.944,284.932,57.203,257.658,43.787,225.271 M121.365,193.143l-19.393,8.019c7.24,17.491,21.135,32.215,39.953,40.007
		l8.034-19.4C136.488,216.188,126.545,205.648,121.365,193.143"/>
	<path fill="#B2D33E" d="M63.18,217.234c-11.354-27.414-12.278-59.157-0.046-88.674l-19.402-8.04
		c14.44-34.863,41.724-60.607,74.11-74.021l-8.038-19.395c-37.353,15.472-68.816,45.167-85.475,85.383
		c-16.657,40.217-15.403,83.458,0.066,120.818l19.39-8.035c13.418,32.389,39.159,59.66,74.027,74.106l8.032-19.403
		C96.328,267.748,74.539,244.645,63.18,217.234 M140.751,185.105c-3.118-7.541-3.373-16.279-0.01-24.399l-19.396-8.037
		c5.573-13.471,16.108-23.417,28.625-28.596l-8.032-19.395c-17.48,7.24-32.208,21.129-39.999,39.951v0.006
		c-7.798,18.811-7.204,39.061,0.036,56.529l19.391-8.021c5.18,12.51,15.125,23.045,28.594,28.627L158,202.368
		C149.878,198.996,143.876,192.645,140.751,185.105"/>
	<path fill="#466533" d="M117.841,46.499c-32.387,13.414-59.67,39.158-74.11,74.021l19.402,8.035
		c12.227-29.513,35.32-51.308,62.737-62.663L117.841,46.499z M149.97,124.071c-12.517,5.184-23.052,15.127-28.625,28.598
		l19.396,8.034c3.359-8.113,9.715-14.118,17.263-17.24L149.97,124.071z"/>
	<path fill="#793C56" d="M214.546,65.844l-8.039,19.399c24.167,10.011,42.014,28.925,51.313,51.372l19.392-8.035
		C265.852,101.166,244.065,78.065,214.546,65.844 M182.397,143.451l-8.035,19.402c2.775,1.149,4.826,3.315,5.891,5.887l19.388-8.032
		C196.518,153.17,190.513,146.819,182.397,143.451"/>
	<path fill="#2EB2E2" d="M335.391,104.483c-17.529-42.325-51.166-77.975-96.729-96.855l-8.042,19.405
		c40.216,16.66,69.911,48.127,85.377,85.477c15.477,37.36,16.732,80.6,0.07,120.821l19.407,8.034v-0.008
		C354.341,195.797,352.923,146.804,335.391,104.483 M257.817,136.615c-9.294-22.447-27.146-41.36-51.305-51.372l-8.04,19.4
		c18.822,7.801,32.716,22.522,39.955,40.006c7.239,17.477,7.823,37.715,0.031,56.531l19.404,8.041
		c-10.012,24.165-28.92,42.008-51.368,51.305l8.031,19.392c27.415-11.351,50.516-33.146,62.732-62.664
		c12.23-29.517,11.306-61.253-0.047-88.673L257.817,136.615z M180.252,168.738c1.069,2.575,1.146,5.557,0,8.333
		c-1.15,2.771-3.314,4.824-5.893,5.89l8.037,19.388c7.538-3.123,13.896-9.117,17.258-17.236c3.364-8.129,3.11-16.854-0.012-24.402
		L180.252,168.738z"/>
	<path fill="#FFCB05" d="M222.582,46.439L222.582,46.439c-34.869-14.44-72.359-13.358-104.743,0.06l8.032,19.393
		c-27.419,11.354-50.513,33.15-62.736,62.663l19.4,8.04c10.011-24.17,28.922-42.009,51.37-51.306
		c22.443-9.307,48.433-10.058,72.604-0.046l8.037-19.399c29.519,12.225,51.306,35.322,62.665,62.739l19.396-8.038
		C283.191,88.163,257.458,60.886,222.582,46.439 M190.437,124.054L190.437,124.054c-13.475-5.582-27.957-5.166-40.467,0.017
		l8.034,19.392c-7.547,3.123-13.9,9.13-17.261,17.243l19.402,8.037c1.146-2.772,3.317-4.826,5.889-5.887
		c2.569-1.064,5.549-1.154,8.328,0l8.038-19.403c8.116,3.366,14.115,9.717,17.243,17.258l19.391-8.032
		C213.849,140.166,203.906,129.63,190.437,124.054"/>
	<path fill="#77787B" d="M170.192,172.906"/>
	<path fill="#77787B" d="M170.192,172.906"/>
	<path fill="#77787B" d="M170.192,172.906"/>
</g>
<path fill="#FFFFFF" d="M448.641,217.135c8.342,0,14.648,6.348,14.648,14.45c0,8.343-6.307,14.849-14.648,14.849
	c-8.343,0-14.65-6.506-14.65-14.849C433.99,223.48,440.298,217.135,448.641,217.135z M448.641,241.564
	c5.109,0,9.221-4.313,9.221-9.979c0-5.429-4.11-9.58-9.221-9.58s-9.221,4.151-9.221,9.58
	C439.42,237.253,443.531,241.564,448.641,241.564z"/>
<path fill="#FFFFFF" d="M468.239,222.045h-2.595v-4.432h17.164c1.876,0,2.675,0.839,2.675,2.715v4.313h-4.71v-1.718
	c0-0.56-0.319-0.878-0.878-0.878h-6.426v6.945h4.471c4.67,0,9.979,1.876,9.979,8.303c0,6.107-4.671,8.662-10.06,8.662h-6.906
	c-1.876,0-2.714-0.799-2.714-2.715L468.239,222.045L468.239,222.045z M474.346,241.645h3.952c2.675,0,4.23-1.717,4.23-4.19
	c0-2.476-1.557-4.151-4.23-4.151h-4.83v7.465C473.468,241.324,473.787,241.645,474.346,241.645z"/>
<path fill="#FFFFFF" d="M492.587,222.045h-2.596v-4.432h12.974c5.31,0,9.021,3.713,9.021,9.222s-3.712,9.341-9.021,9.341h-5.149
	v9.779h-5.229V222.045z M502.007,231.705c2.954,0,4.631-1.916,4.631-4.87c0-2.914-1.677-4.79-4.551-4.79h-4.271v9.66H502.007
	L502.007,231.705z"/>
<path fill="#FFFFFF" d="M511.308,241.523h0.679c0.678,0,0.957-0.16,1.197-0.877l8.422-23.033h5.469l8.383,23.033
	c0.279,0.717,0.56,0.877,1.237,0.877h0.64v4.432h-3.113c-1.996,0-2.715-0.52-3.313-2.314l-1.796-4.949h-9.54l-1.797,4.949
	c-0.599,1.797-1.315,2.314-3.312,2.314h-3.153v-4.432H511.308z M527.952,234.379l-2.436-7.105c-0.519-1.557-1.157-4.229-1.157-4.229
	h-0.08c0,0-0.599,2.674-1.118,4.229l-2.395,7.105H527.952z"/>
<path fill="#FFFFFF" d="M541.562,238.971c0.998,1.037,3.394,2.913,6.188,2.913c2.635,0,5.028-1.517,5.028-4.231
	c0-2.514-2.035-3.991-4.511-3.991h-3.233v-4.19h2.874c2.315,0,4.072-1.597,4.072-3.992c0-2.274-1.478-3.752-4.072-3.752
	c-2.194,0-3.832,1.117-3.832,2.436v1.038h-4.71v-2.476c0-3.951,4.99-5.589,8.981-5.589c5.748,0,8.861,3.074,8.861,7.505
	c0,3.354-1.916,5.27-3.911,6.348v0.08c3.112,0.918,4.789,3.632,4.789,6.824c0,4.95-3.991,8.543-10.18,8.543
	c-4.75,0-7.704-2.195-9.38-3.912L541.562,238.971z"/>
<path fill="#FFFFFF" d="M575.331,217.135c8.344,0,14.65,6.348,14.65,14.45c0,8.343-6.308,14.849-14.65,14.849
	c-8.342,0-14.648-6.506-14.648-14.849C560.683,223.48,566.99,217.135,575.331,217.135z M575.331,241.564
	c5.109,0,9.222-4.313,9.222-9.979c0-5.429-4.111-9.58-9.222-9.58c-5.109,0-9.221,4.151-9.221,9.58
	C566.111,237.253,570.223,241.564,575.331,241.564z"/>
<path fill="#FFFFFF" d="M594.93,222.045h-2.595v-4.432h12.613c5.149,0,8.781,2.635,8.781,7.306c0,3.153-1.716,5.188-3.433,6.067
	v0.08c3.072,0.918,4.551,3.791,4.551,6.666c0,5.668-4.511,8.223-9.74,8.223h-7.464c-1.876,0-2.715-0.799-2.715-2.715L594.93,222.045
	L594.93,222.045z M605.068,229.189c2.196,0,3.435-1.597,3.435-3.633c0-2.035-1.197-3.513-3.514-3.513h-4.91v7.146H605.068z
	 M600.956,241.523h4.592c2.555,0,3.99-1.717,3.99-4.11c0-2.354-1.477-4.071-3.99-4.071h-5.47v7.305
	C600.078,241.205,600.398,241.523,600.956,241.523z"/>
<path fill="#FFFFFF" d="M616.164,241.523h0.68c0.678,0,0.957-0.16,1.197-0.877l8.422-23.033h5.469l8.383,23.033
	c0.279,0.717,0.559,0.877,1.237,0.877h0.639v4.432h-3.113c-1.995,0-2.715-0.52-3.313-2.314l-1.796-4.949h-9.54l-1.797,4.949
	c-0.6,1.797-1.316,2.314-3.313,2.314h-3.153v-4.432H616.164z M632.811,234.379l-2.436-7.105c-0.52-1.557-1.157-4.229-1.157-4.229
	h-0.08c0,0-0.6,2.674-1.118,4.229l-2.395,7.105H632.811z"/>
<path fill="#FFFFFF" d="M646.222,222.923c0-0.56-0.319-0.878-0.878-0.878h-1.717v-4.432h5.108c1.916,0,2.715,0.839,2.715,2.715
	v9.301h12.494v-9.301c0-1.876,0.838-2.715,2.714-2.715h5.109v4.432h-1.716c-0.561,0-0.879,0.318-0.879,0.878v23.032h-5.229v-11.895
	h-12.494v11.896h-5.229L646.222,222.923L646.222,222.923z"/>
<path fill="#FFFFFF" d="M676.757,222.923c0-0.56-0.319-0.878-0.878-0.878h-1.718v-4.432h5.109c1.916,0,2.715,0.839,2.715,2.715
	v13.213c0,1.677-0.278,4.311-0.278,4.311h0.078c0,0,1.559-2.713,2.556-4.351l10.419-15.887h5.188v23.032
	c0,0.559,0.318,0.877,0.878,0.877h1.717v4.432h-5.109c-1.876,0-2.714-0.799-2.714-2.715v-13.252c0-1.637,0.279-4.391,0.279-4.391
	h-0.08c0,0-1.396,2.754-2.476,4.391l-10.458,15.967h-5.229V222.923L676.757,222.923z"/>
<path fill="#FFFFFF" d="M707.49,222.045h-2.595v-4.432h17.125c1.916,0,2.714,0.839,2.714,2.715v4.313h-4.71v-1.718
	c0-0.56-0.319-0.878-0.878-0.878h-6.427v7.426h9.221v4.43h-9.221v6.746c0,0.56,0.318,0.879,0.878,0.879h6.587
	c0.559,0,0.878-0.319,0.878-0.879v-1.717h4.71v4.312c0,1.916-0.799,2.715-2.715,2.715h-12.854c-1.876,0-2.715-0.799-2.715-2.715
	L707.49,222.045L707.49,222.045z"/>
<path fill="#FFFFFF" d="M443.132,269.943h-4.352c-0.599,0-0.878,0.318-0.878,0.877v1.718h-4.59v-4.472
	c0-1.875,0.639-2.555,2.515-2.555h19.8c1.876,0,2.555,0.68,2.555,2.555v4.472h-4.63v-1.718c0-0.559-0.279-0.877-0.878-0.877h-4.313
	v23.91h-5.229L443.132,269.943L443.132,269.943z"/>
<path fill="#FFFFFF" d="M462.41,269.943h-2.594v-4.432h12.614c5.148,0,8.782,2.635,8.782,7.305c0,3.154-1.717,5.189-3.434,6.067
	v0.08c3.074,0.918,4.551,3.792,4.551,6.666c0,5.668-4.511,8.224-9.739,8.224h-7.464c-1.876,0-2.716-0.8-2.716-2.716L462.41,269.943
	L462.41,269.943z M472.55,277.088c2.194,0,3.433-1.596,3.433-3.632s-1.198-3.513-3.513-3.513h-4.91v7.145H472.55z M468.439,289.423
	h4.59c2.556,0,3.992-1.717,3.992-4.11c0-2.355-1.477-4.071-3.992-4.071h-5.469v7.305
	C467.561,289.104,467.88,289.423,468.439,289.423z"/>
<path fill="#FFFFFF" d="M499.573,265.033c8.342,0,14.65,6.347,14.65,14.449c0,8.344-6.309,14.85-14.65,14.85
	c-8.343,0-14.649-6.506-14.649-14.85C484.923,271.38,491.23,265.033,499.573,265.033z M499.573,289.463
	c5.109,0,9.221-4.313,9.221-9.979c0-5.43-4.111-9.58-9.221-9.58c-5.108,0-9.221,4.15-9.221,9.58
	C490.352,285.15,494.463,289.463,499.573,289.463z"/>
<path fill="#FFFFFF" d="M519.171,269.943h-2.596v-4.432H533.7c1.916,0,2.714,0.838,2.714,2.715v4.312h-4.71v-1.718
	c0-0.559-0.318-0.877-0.878-0.877H524.4v7.425h9.221v4.431H524.4v6.746c0,0.559,0.319,0.878,0.878,0.878h6.587
	c0.56,0,0.878-0.319,0.878-0.878v-1.717h4.71v4.311c0,1.916-0.799,2.715-2.715,2.715h-12.853c-1.876,0-2.715-0.799-2.715-2.715
	L519.171,269.943L519.171,269.943z"/>
<path fill="#FFFFFF" d="M542.441,269.943h-2.595v-4.432h16.846c1.916,0,2.714,0.838,2.714,2.715v4.312h-4.75v-1.718
	c0-0.559-0.318-0.877-0.878-0.877h-6.106v23.91h-5.229L542.441,269.943L542.441,269.943z"/>
<path fill="#FFFFFF" d="M575.291,265.033c8.344,0,14.649,6.347,14.649,14.449c0,8.344-6.307,14.85-14.649,14.85
	c-8.342,0-14.648-6.506-14.648-14.85C560.643,271.38,566.948,265.033,575.291,265.033z M575.291,289.463
	c5.109,0,9.223-4.313,9.223-9.979c0-5.43-4.112-9.58-9.223-9.58c-5.109,0-9.221,4.15-9.221,9.58
	C566.071,285.15,570.183,289.463,575.291,289.463z"/>
<path fill="#FFFFFF" d="M605.468,269.943h-2.595v-4.432h17.164c1.876,0,2.675,0.838,2.675,2.715v4.312h-4.71v-1.718
	c0-0.559-0.319-0.877-0.879-0.877h-6.427v6.945h4.472c4.67,0,9.979,1.875,9.979,8.303c0,6.106-4.671,8.662-10.06,8.662h-6.905
	c-1.876,0-2.715-0.799-2.715-2.715L605.468,269.943L605.468,269.943z M611.574,289.543h3.952c2.674,0,4.23-1.717,4.23-4.191
	c0-2.476-1.558-4.15-4.23-4.15h-4.83v7.464C610.697,289.223,611.017,289.543,611.574,289.543z"/>
<path fill="#FFFFFF" d="M631.015,288.385c0.758,0.68,1.716,1.197,2.834,1.197c1.477,0,2.195-0.838,2.794-2.516l-8.303-16.246
	c-0.319-0.639-0.6-0.877-1.277-0.877h-0.878v-4.432h3.393c1.916,0,2.476,0.639,3.273,2.315l5.029,10.817
	c0.759,1.676,1.396,3.433,1.396,3.433h0.08c0,0,0.479-1.597,1.117-3.433l3.912-10.817c0.639-1.798,1.356-2.315,3.353-2.315h3.074
	v4.432h-0.759c-0.679,0-0.958,0.199-1.237,0.877l-7.345,18.084c-1.078,2.634-2.914,5.428-6.906,5.428
	c-2.594,0-4.989-1.236-5.907-2.115L631.015,288.385z"/>
<path fill="#FFFFFF" d="M652.609,289.423h0.56c3.473-5.349,3.99-11.976,3.99-17.724v-1.756h-2.595v-4.432h17.604
	c1.916,0,2.715,0.838,2.715,2.715v21.195h0.719c1.876,0,2.594,0.68,2.594,2.596v7.424h-4.71v-4.711c0-0.559-0.318-0.877-0.798-0.877
	h-17.085c-0.559,0-0.878,0.318-0.878,0.877v4.711h-4.71v-7.424C650.015,290.102,650.693,289.423,652.609,289.423z M669.693,289.423
	V270.82c0-0.559-0.319-0.877-0.878-0.877h-6.666v2.115c0,5.549-0.719,12.573-3.673,17.363L669.693,289.423L669.693,289.423z"/>
<path fill="#FFFFFF" d="M684.342,288.385c0.758,0.68,1.716,1.197,2.834,1.197c1.477,0,2.194-0.838,2.794-2.516l-8.304-16.246
	c-0.318-0.639-0.599-0.877-1.276-0.877h-0.878v-4.432h3.393c1.916,0,2.476,0.639,3.273,2.315l5.029,10.817
	c0.759,1.676,1.396,3.433,1.396,3.433h0.079c0,0,0.479-1.597,1.118-3.433l3.912-10.817c0.639-1.798,1.355-2.315,3.353-2.315h3.074
	v4.432h-0.759c-0.68,0-0.958,0.199-1.237,0.877l-7.345,18.084c-1.078,2.634-2.914,5.428-6.905,5.428
	c-2.595,0-4.99-1.236-5.908-2.115L684.342,288.385z"/>
<path fill="#FFFFFF" d="M711.042,270.82c0-0.559-0.319-0.877-0.878-0.877h-1.717v-4.432h5.148c1.876,0,2.676,0.838,2.676,2.715
	v20.317c0,0.56,0.318,0.878,0.878,0.878h8.144v-23.91h5.229v23.91h8.98v-23.91h5.229v23.91h1.156c1.876,0,2.596,0.68,2.596,2.596
	v7.463h-4.592v-4.75c0-0.559-0.318-0.877-0.798-0.877h-29.339c-1.876,0-2.715-0.799-2.715-2.715L711.042,270.82L711.042,270.82z"/>
<path fill="#FFFFFF" d="M753.034,269.943h-2.595v-4.432h17.125c1.916,0,2.714,0.838,2.714,2.715v4.312h-4.71v-1.718
	c0-0.559-0.319-0.877-0.878-0.877h-6.428v7.425h9.222v4.431h-9.222v6.746c0,0.559,0.319,0.878,0.878,0.878h6.587
	c0.56,0,0.879-0.319,0.879-0.878v-1.717h4.71v4.311c0,1.916-0.798,2.715-2.714,2.715h-12.854c-1.876,0-2.715-0.799-2.715-2.715
	L753.034,269.943L753.034,269.943z"/>
<path fill="#FFFFFF" d="M776.304,269.943h-2.595v-4.432h16.846c1.916,0,2.715,0.838,2.715,2.715v4.312h-4.75v-1.718
	c0-0.559-0.319-0.877-0.878-0.877h-6.107v23.91h-5.229L776.304,269.943L776.304,269.943z"/>
<path fill="#FFFFFF" d="M809.156,265.033c8.343,0,14.648,6.347,14.648,14.449c0,8.344-6.307,14.85-14.648,14.85
	s-14.649-6.506-14.649-14.85C794.506,271.38,800.814,265.033,809.156,265.033z M809.156,289.463c5.108,0,9.222-4.313,9.222-9.979
	c0-5.43-4.112-9.58-9.222-9.58c-5.11,0-9.222,4.15-9.222,9.58C799.935,285.15,804.046,289.463,809.156,289.463z"/>
</svg>
