<?xml version="1.0" encoding="UTF-8" standalone="no"?>
<!-- Generator: Adobe Illustrator 18.0.0, SVG Export Plug-In . SVG Version: 6.00 Build 0)  -->

<svg
   xmlns:dc="http://purl.org/dc/elements/1.1/"
   xmlns:cc="http://creativecommons.org/ns#"
   xmlns:rdf="http://www.w3.org/1999/02/22-rdf-syntax-ns#"
   xmlns:svg="http://www.w3.org/2000/svg"
   xmlns="http://www.w3.org/2000/svg"
   xmlns:sodipodi="http://sodipodi.sourceforge.net/DTD/sodipodi-0.dtd"
   xmlns:inkscape="http://www.inkscape.org/namespaces/inkscape"
   version="1.1"
   id="Layer_1"
   x="0px"
   y="0px"
   viewBox="0 0 68.9 64.1"
   enable-background="new 0 0 68.9 64.1"
   xml:space="preserve"
   inkscape:version="0.91 r13725"
   sodipodi:docname="review-green.svg"><metadata
     id="metadata17"><rdf:RDF><cc:Work
         rdf:about=""><dc:format>image/svg+xml</dc:format><dc:type
           rdf:resource="http://purl.org/dc/dcmitype/StillImage" /><dc:title></dc:title></cc:Work></rdf:RDF></metadata><defs
     id="defs15" /><sodipodi:namedview
     pagecolor="#ffffff"
     bordercolor="#666666"
     borderopacity="1"
     objecttolerance="10"
     gridtolerance="10"
     guidetolerance="10"
     inkscape:pageopacity="0"
     inkscape:pageshadow="2"
     inkscape:window-width="1359"
     inkscape:window-height="682"
     id="namedview13"
     showgrid="false"
     inkscape:zoom="2.6033885"
     inkscape:cx="61.331718"
     inkscape:cy="70.389293"
     inkscape:window-x="-1"
     inkscape:window-y="0"
     inkscape:window-maximized="0"
     inkscape:current-layer="Layer_1" /><g
     id="g3"
     transform="matrix(-0.7244931,-0.68928205,0.68928205,-0.7244931,2.9569545,-2.4064091)"><path
       d="M 42.6,38.7 C 30.6,50.4 15,56.2 -0.6,56 l -0.1,8.1 C 16.9,64.3 34.6,57.7 48.2,44.4 L 42.6,38.7 Z M 25.6,21.4 19.9,15.6 C 14.3,21.1 7,23.8 -0.3,23.7 l -0.1,8.1 c 9.4,0.1 18.8,-3.4 26,-10.4"
       id="path5"
       inkscape:connector-curvature="0"
       style="fill:#134679" /><path
       d="m -60.8,-5.3 -8.1,-0.1 c -0.2,17.6 6.4,35.3 19.7,48.9 l 0,0 5.8,-5.7 C -55.2,25.9 -60.9,10.2 -60.8,-5.3 M 36.9,32.9 C 26.5,43.1 13,48.1 -0.5,48 l -0.1,8 C 15,56.2 30.6,50.4 42.6,38.6 L 36.9,32.9 Z M -28.4,-5 -36.5,-5.1 c -0.1,9.4 3.4,18.7 10.4,25.9 l 5.8,-5.7 C -25.8,9.6 -28.5,2.3 -28.4,-5 M 14.3,9.8 c -4,3.9 -9.2,5.9 -14.5,5.8 l -0.1,8.1 C 7,23.8 14.3,21.1 19.9,15.6 L 14.3,9.8 Z"
       id="path7"
       inkscape:connector-curvature="0"
       style="fill:#ef465b" /><path
       d="m -44.6,-5.2 c 0.1,-11.4 4.6,-22.8 13.4,-31.4 l -5.7,-5.8 c 10.4,-10.2 23.9,-15.2 37.4,-15 l 0.1,-8.1 c -15.6,-0.2 -31.2,5.6 -43.2,17.4 -12,11.7 -18.1,27.2 -18.2,42.8 l 8.1,0.1 c -0.1,13.5 4.9,27 15,37.4 l 5.8,-5.7 C -40.5,17.7 -44.7,6.2 -44.6,-5.2 m 32.3,0.3 c 0,-3.1 1.3,-6.3 3.7,-8.6 l -5.7,-5.8 c 4,-3.9 9.2,-5.9 14.5,-5.8 l 0.1,-8.1 c -7.3,-0.1 -14.6,2.6 -20.2,8.1 l 0,0 c -5.6,5.5 -8.4,12.8 -8.5,20 l 8.1,0.1 c -0.1,5.2 1.9,10.4 5.8,14.5 l 5.8,-5.7 c -2.4,-2.4 -3.6,-5.5 -3.6,-8.7"
       id="path9"
       inkscape:connector-curvature="0"
       style="fill:#b1d23e" /><path
       d="M 68.9,-4.1 C 69,-21.7 62.5,-39.4 49.2,-53 l -5.8,5.7 c 11.7,12 17.5,27.6 17.3,43.2 C 60.5,11.5 54.5,27 42.5,38.7 l 5.7,5.8 0,0 C 61.8,31.2 68.7,13.6 68.9,-4.1 M 36.5,-4.4 c 0.1,-9.4 -3.4,-18.7 -10.4,-25.9 l -5.8,5.7 c 5.5,5.6 8.2,12.9 8.1,20.2 -0.1,7.3 -2.9,14.5 -8.5,20 l 5.7,5.8 c -7.2,7 -16.6,10.5 -26,10.4 l -0.1,8.1 C 11,40 22.5,35.7 31.2,27.1 40,18.5 44.4,7.1 44.6,-4.3 L 36.5,-4.4 Z M 4.2,-4.7 c 0,1.1 -0.4,2.1 -1.3,3 C 2.1,-0.9 1,-0.5 0,-0.5 L -0.1,7.6 C 3,7.6 6.2,6.4 8.6,4 11,1.6 12.2,-1.5 12.3,-4.6 L 4.2,-4.7 Z"
       id="path11"
       inkscape:connector-curvature="0"
       style="fill:#2eb1e0" /></g></svg>